%TF.GenerationSoftware,KiCad,Pcbnew,10.0.3*%
%TF.CreationDate,2026-06-25T13:59:59-05:00*%
%TF.ProjectId,TPS546C23 Board,54505335-3436-4433-9233-20426f617264,rev?*%
%TF.SameCoordinates,Original*%
%TF.FileFunction,Copper,L1,Top*%
%TF.FilePolarity,Positive*%
%FSLAX46Y46*%
G04 Gerber Fmt 4.6, Leading zero omitted, Abs format (unit mm)*
G04 Created by KiCad (PCBNEW 10.0.3) date 2026-06-25 13:59:59*
%MOMM*%
%LPD*%
G01*
G04 APERTURE LIST*
G04 Aperture macros list*
%AMRoundRect*
0 Rectangle with rounded corners*
0 $1 Rounding radius*
0 $2 $3 $4 $5 $6 $7 $8 $9 X,Y pos of 4 corners*
0 Add a 4 corners polygon primitive as box body*
4,1,4,$2,$3,$4,$5,$6,$7,$8,$9,$2,$3,0*
0 Add four circle primitives for the rounded corners*
1,1,$1+$1,$2,$3*
1,1,$1+$1,$4,$5*
1,1,$1+$1,$6,$7*
1,1,$1+$1,$8,$9*
0 Add four rect primitives between the rounded corners*
20,1,$1+$1,$2,$3,$4,$5,0*
20,1,$1+$1,$4,$5,$6,$7,0*
20,1,$1+$1,$6,$7,$8,$9,0*
20,1,$1+$1,$8,$9,$2,$3,0*%
G04 Aperture macros list end*
%TA.AperFunction,SMDPad,CuDef*%
%ADD10RoundRect,0.140000X-0.140000X-0.170000X0.140000X-0.170000X0.140000X0.170000X-0.140000X0.170000X0*%
%TD*%
%TA.AperFunction,ComponentPad*%
%ADD11C,2.600000*%
%TD*%
%TA.AperFunction,SMDPad,CuDef*%
%ADD12RoundRect,0.250000X0.475000X-0.250000X0.475000X0.250000X-0.475000X0.250000X-0.475000X-0.250000X0*%
%TD*%
%TA.AperFunction,SMDPad,CuDef*%
%ADD13RoundRect,0.140000X0.140000X0.170000X-0.140000X0.170000X-0.140000X-0.170000X0.140000X-0.170000X0*%
%TD*%
%TA.AperFunction,SMDPad,CuDef*%
%ADD14RoundRect,0.135000X-0.135000X-0.185000X0.135000X-0.185000X0.135000X0.185000X-0.135000X0.185000X0*%
%TD*%
%TA.AperFunction,SMDPad,CuDef*%
%ADD15RoundRect,0.140000X-0.170000X0.140000X-0.170000X-0.140000X0.170000X-0.140000X0.170000X0.140000X0*%
%TD*%
%TA.AperFunction,ComponentPad*%
%ADD16R,1.700000X1.700000*%
%TD*%
%TA.AperFunction,ComponentPad*%
%ADD17C,1.700000*%
%TD*%
%TA.AperFunction,SMDPad,CuDef*%
%ADD18RoundRect,0.250000X0.550000X-1.500000X0.550000X1.500000X-0.550000X1.500000X-0.550000X-1.500000X0*%
%TD*%
%TA.AperFunction,SMDPad,CuDef*%
%ADD19RoundRect,0.135000X-0.185000X0.135000X-0.185000X-0.135000X0.185000X-0.135000X0.185000X0.135000X0*%
%TD*%
%TA.AperFunction,SMDPad,CuDef*%
%ADD20RoundRect,0.250000X-1.500000X-0.550000X1.500000X-0.550000X1.500000X0.550000X-1.500000X0.550000X0*%
%TD*%
%TA.AperFunction,SMDPad,CuDef*%
%ADD21RoundRect,0.250000X1.375000X2.500000X-1.375000X2.500000X-1.375000X-2.500000X1.375000X-2.500000X0*%
%TD*%
%TA.AperFunction,SMDPad,CuDef*%
%ADD22RoundRect,0.140000X0.170000X-0.140000X0.170000X0.140000X-0.170000X0.140000X-0.170000X-0.140000X0*%
%TD*%
%TA.AperFunction,SMDPad,CuDef*%
%ADD23RoundRect,0.135000X0.185000X-0.135000X0.185000X0.135000X-0.185000X0.135000X-0.185000X-0.135000X0*%
%TD*%
%TA.AperFunction,SMDPad,CuDef*%
%ADD24R,0.300000X0.850000*%
%TD*%
%TA.AperFunction,SMDPad,CuDef*%
%ADD25R,0.850000X0.300000*%
%TD*%
%TA.AperFunction,SMDPad,CuDef*%
%ADD26R,5.400000X3.400000*%
%TD*%
%TA.AperFunction,SMDPad,CuDef*%
%ADD27RoundRect,0.135000X0.135000X0.185000X-0.135000X0.185000X-0.135000X-0.185000X0.135000X-0.185000X0*%
%TD*%
%TA.AperFunction,ViaPad*%
%ADD28C,0.500000*%
%TD*%
%TA.AperFunction,ViaPad*%
%ADD29C,0.508000*%
%TD*%
%TA.AperFunction,Conductor*%
%ADD30C,0.127000*%
%TD*%
%TA.AperFunction,Conductor*%
%ADD31C,0.254000*%
%TD*%
G04 APERTURE END LIST*
D10*
%TO.P,C_decp2,1*%
%TO.N,V_sdec*%
X208120000Y-64250000D03*
%TO.P,C_decp2,2*%
%TO.N,AGND*%
X209080000Y-64250000D03*
%TD*%
D11*
%TO.P,J3,1,Pin_1_1*%
%TO.N,AGND*%
X252095000Y-69850000D03*
X252095000Y-64770000D03*
X247015000Y-69850000D03*
X247015000Y-64770000D03*
%TD*%
D10*
%TO.P,CL1,1*%
%TO.N,Net-(IC1-SW_1)*%
X210120000Y-72850000D03*
%TO.P,CL1,2*%
%TO.N,Net-(CL1-Pad2)*%
X211080000Y-72850000D03*
%TD*%
D12*
%TO.P,C4,1*%
%TO.N,V_A*%
X240655000Y-77245000D03*
%TO.P,C4,2*%
%TO.N,AGND*%
X240655000Y-75345000D03*
%TD*%
D13*
%TO.P,Ccomp2,1*%
%TO.N,Net-(IC1-COMP)*%
X199330000Y-70750000D03*
%TO.P,Ccomp2,2*%
%TO.N,Net-(Ccomp2-Pad2)*%
X198370000Y-70750000D03*
%TD*%
D14*
%TO.P,Rdifo3,1*%
%TO.N,Net-(Rdifo1-Pad2)*%
X198690000Y-66250000D03*
%TO.P,Rdifo3,2*%
%TO.N,Net-(IC1-DIFFO)*%
X199710000Y-66250000D03*
%TD*%
D15*
%TO.P,C_bp6-2,1*%
%TO.N,AGND*%
X203581000Y-65350000D03*
%TO.P,C_bp6-2,2*%
%TO.N,Net-(IC1-BP6)*%
X203581000Y-66310000D03*
%TD*%
D16*
%TO.P,J7,1,Pin_1_1*%
%TO.N,CLK*%
X204475000Y-88265000D03*
D17*
%TO.P,J7,2,Pin_2_2*%
%TO.N,Data*%
X201935000Y-88265000D03*
%TD*%
D15*
%TO.P,C_bp6,1*%
%TO.N,AGND*%
X204550000Y-65340000D03*
%TO.P,C_bp6,2*%
%TO.N,Net-(IC1-BP6)*%
X204550000Y-66300000D03*
%TD*%
D18*
%TO.P,C8,1*%
%TO.N,V_A*%
X234500000Y-79700000D03*
%TO.P,C8,2*%
%TO.N,AGND*%
X234500000Y-74300000D03*
%TD*%
D14*
%TO.P,Rsn1,1*%
%TO.N,AGND*%
X251240000Y-74550000D03*
%TO.P,Rsn1,2*%
%TO.N,rsn*%
X252260000Y-74550000D03*
%TD*%
D15*
%TO.P,C_bp3,1*%
%TO.N,AGND*%
X205600000Y-65350000D03*
%TO.P,C_bp3,2*%
%TO.N,Net-(IC1-BP3)*%
X205600000Y-66310000D03*
%TD*%
D19*
%TO.P,r_ad1,1*%
%TO.N,Net-(IC1-ADDR0)*%
X203300000Y-73780000D03*
%TO.P,r_ad1,2*%
%TO.N,AGND*%
X203300000Y-74800000D03*
%TD*%
D18*
%TO.P,C7,1*%
%TO.N,V_A*%
X226350000Y-79700000D03*
%TO.P,C7,2*%
%TO.N,AGND*%
X226350000Y-74300000D03*
%TD*%
D10*
%TO.P,C_boot1,1*%
%TO.N,Net-(IC1-BOOT)*%
X205320000Y-73850000D03*
%TO.P,C_boot1,2*%
%TO.N,Net-(IC1-SW_1)*%
X206280000Y-73850000D03*
%TD*%
D15*
%TO.P,Crsn1,1*%
%TO.N,rsn*%
X252250000Y-75790000D03*
%TO.P,Crsn1,2*%
%TO.N,rsp*%
X252250000Y-76750000D03*
%TD*%
D12*
%TO.P,C5,1*%
%TO.N,V_A*%
X243650000Y-77250000D03*
%TO.P,C5,2*%
%TO.N,AGND*%
X243650000Y-75350000D03*
%TD*%
D10*
%TO.P,C_decp3,1*%
%TO.N,V_sdec*%
X208120000Y-65300000D03*
%TO.P,C_decp3,2*%
%TO.N,AGND*%
X209080000Y-65300000D03*
%TD*%
D14*
%TO.P,Rsp1,1*%
%TO.N,V_A*%
X251230000Y-77950000D03*
%TO.P,Rsp1,2*%
%TO.N,rsp*%
X252250000Y-77950000D03*
%TD*%
%TO.P,Rdifo2,1*%
%TO.N,Net-(IC1-FB)*%
X198290000Y-67350000D03*
%TO.P,Rdifo2,2*%
%TO.N,Net-(Rdifo1-Pad2)*%
X199310000Y-67350000D03*
%TD*%
D19*
%TO.P,R_rt1,1*%
%TO.N,Net-(IC1-RT)*%
X201100000Y-73770000D03*
%TO.P,R_rt1,2*%
%TO.N,AGND*%
X201100000Y-74790000D03*
%TD*%
D12*
%TO.P,C6,1*%
%TO.N,V_A*%
X246550000Y-77250000D03*
%TO.P,C6,2*%
%TO.N,AGND*%
X246550000Y-75350000D03*
%TD*%
D20*
%TO.P,C10,1*%
%TO.N,V_sdec*%
X206495000Y-50565000D03*
%TO.P,C10,2*%
%TO.N,AGND*%
X211895000Y-50565000D03*
%TD*%
D21*
%TO.P,L1,1,1_1*%
%TO.N,V_A*%
X219675000Y-80200000D03*
%TO.P,L1,2,2_2*%
%TO.N,Net-(IC1-SW_1)*%
X208425000Y-80200000D03*
%TD*%
D14*
%TO.P,RL1,1*%
%TO.N,Net-(CL1-Pad2)*%
X212530000Y-72850000D03*
%TO.P,RL1,2*%
%TO.N,AGND*%
X213550000Y-72850000D03*
%TD*%
D11*
%TO.P,J4,1,Pin_1_1*%
%TO.N,V_A*%
X252095000Y-86995000D03*
X252095000Y-81915000D03*
X247015000Y-86995000D03*
X247015000Y-81915000D03*
%TD*%
D10*
%TO.P,C_decp4,1*%
%TO.N,V_sdec*%
X208120000Y-66400000D03*
%TO.P,C_decp4,2*%
%TO.N,AGND*%
X209080000Y-66400000D03*
%TD*%
D22*
%TO.P,Ccomp1,1*%
%TO.N,Net-(IC1-COMP)*%
X200350000Y-70780000D03*
%TO.P,Ccomp1,2*%
%TO.N,Net-(IC1-FB)*%
X200350000Y-69820000D03*
%TD*%
D11*
%TO.P,J1,1,Pin_1_1*%
%TO.N,V_sdec*%
X207645000Y-39370000D03*
X202565000Y-39370000D03*
X207645000Y-44450000D03*
X202565000Y-44450000D03*
%TD*%
D10*
%TO.P,Cdifo1,1*%
%TO.N,Net-(Cdifo1-Pad1)*%
X198300000Y-68500000D03*
%TO.P,Cdifo1,2*%
%TO.N,Net-(IC1-FB)*%
X199260000Y-68500000D03*
%TD*%
D11*
%TO.P,J2,1,Pin_1_1*%
%TO.N,AGND*%
X226060000Y-39370000D03*
X220980000Y-39370000D03*
X226060000Y-44450000D03*
X220980000Y-44450000D03*
%TD*%
D20*
%TO.P,C11,1*%
%TO.N,V_sdec*%
X206495000Y-58715000D03*
%TO.P,C11,2*%
%TO.N,AGND*%
X211895000Y-58715000D03*
%TD*%
D10*
%TO.P,C_decp1,1*%
%TO.N,V_sdec*%
X208150000Y-63200000D03*
%TO.P,C_decp1,2*%
%TO.N,AGND*%
X209110000Y-63200000D03*
%TD*%
D23*
%TO.P,Rdifo1,1*%
%TO.N,Net-(Cdifo1-Pad1)*%
X197150000Y-68510000D03*
%TO.P,Rdifo1,2*%
%TO.N,Net-(Rdifo1-Pad2)*%
X197150000Y-67490000D03*
%TD*%
D24*
%TO.P,IC1,1,RT_1*%
%TO.N,Net-(IC1-RT)*%
X202500000Y-72500000D03*
%TO.P,IC1,2,ADDR1_2*%
%TO.N,Net-(IC1-ADDR1)*%
X203000000Y-72500000D03*
%TO.P,IC1,3,ADDR0_3*%
%TO.N,Net-(IC1-ADDR0)*%
X203500000Y-72500000D03*
%TO.P,IC1,4,PMB_DATA_4*%
%TO.N,Data*%
X204000000Y-72500000D03*
%TO.P,IC1,5,PMB_CLK_5*%
%TO.N,CLK*%
X204500000Y-72500000D03*
%TO.P,IC1,6,SMB_ALRT_6*%
%TO.N,unconnected-(IC1-SMB_ALRT-Pad6)*%
X205000000Y-72500000D03*
%TO.P,IC1,7,BOOT_7*%
%TO.N,Net-(IC1-BOOT)*%
X205500000Y-72500000D03*
%TO.P,IC1,8,SW_1_8*%
%TO.N,Net-(IC1-SW_1)*%
X206000000Y-72500000D03*
%TO.P,IC1,9,SW_2_9*%
X206500000Y-72500000D03*
%TO.P,IC1,10,SW_3_10*%
X207000000Y-72500000D03*
%TO.P,IC1,11,SW_4_11*%
X207500000Y-72500000D03*
%TO.P,IC1,12,SW_5_12*%
X208000000Y-72500000D03*
D25*
%TO.P,IC1,13,PGND_1_13*%
%TO.N,AGND*%
X208700000Y-71800000D03*
%TO.P,IC1,14,PGND_2_14*%
X208700000Y-71300000D03*
%TO.P,IC1,15,PGND_3_15*%
X208700000Y-70800000D03*
%TO.P,IC1,16,PGND_4_16*%
X208700000Y-70300000D03*
%TO.P,IC1,17,PGND_5_17*%
X208700000Y-69800000D03*
%TO.P,IC1,18,PGND_6_18*%
X208700000Y-69300000D03*
%TO.P,IC1,19,PGND_7_19*%
X208700000Y-68800000D03*
%TO.P,IC1,20,PGND_8_20*%
X208700000Y-68300000D03*
D24*
%TO.P,IC1,21,PVIN_1_21*%
%TO.N,V_sdec*%
X208000000Y-67600000D03*
%TO.P,IC1,22,PVIN_2_22*%
X207500000Y-67600000D03*
%TO.P,IC1,23,PVIN_3_23*%
X207000000Y-67600000D03*
%TO.P,IC1,24,PVIN_4_24*%
X206500000Y-67600000D03*
%TO.P,IC1,25,PVIN_5_25*%
X206000000Y-67600000D03*
%TO.P,IC1,26,DRGND_26*%
%TO.N,AGND*%
X205500000Y-67600000D03*
%TO.P,IC1,27,BP3_27*%
%TO.N,Net-(IC1-BP3)*%
X205000000Y-67600000D03*
%TO.P,IC1,28,BP6_28*%
%TO.N,Net-(IC1-BP6)*%
X204500000Y-67600000D03*
%TO.P,IC1,29,AVIN_29*%
%TO.N,V_sdec*%
X204000000Y-67600000D03*
%TO.P,IC1,30,~{RESET}/PGD_30*%
%TO.N,Net-(IC1-~{RESET}{slash}PGD)*%
X203500000Y-67600000D03*
%TO.P,IC1,31,ISHARE_1_31*%
%TO.N,unconnected-(IC1-ISHARE_1-Pad31)*%
X203000000Y-67600000D03*
%TO.P,IC1,32,ISHARE_2_32*%
%TO.N,unconnected-(IC1-ISHARE_2-Pad32)*%
X202500000Y-67600000D03*
D25*
%TO.P,IC1,33,RSP_33*%
%TO.N,rsp*%
X201800000Y-68300000D03*
%TO.P,IC1,34,RSN_34*%
%TO.N,rsn*%
X201800000Y-68800000D03*
%TO.P,IC1,35,DIFFO_35*%
%TO.N,Net-(IC1-DIFFO)*%
X201800000Y-69300000D03*
%TO.P,IC1,36,FB_36*%
%TO.N,Net-(IC1-FB)*%
X201800000Y-69800000D03*
%TO.P,IC1,37,COMP_37*%
%TO.N,Net-(IC1-COMP)*%
X201800000Y-70300000D03*
%TO.P,IC1,38,AGND_38*%
%TO.N,AGND*%
X201800000Y-70800000D03*
%TO.P,IC1,39,SYNC_39*%
%TO.N,unconnected-(IC1-SYNC-Pad39)*%
X201800000Y-71300000D03*
%TO.P,IC1,40,CNTL_40*%
%TO.N,unconnected-(IC1-CNTL-Pad40)*%
X201800000Y-71800000D03*
D26*
%TO.P,IC1,41,THERMAL_PAD_41*%
%TO.N,AGND*%
X205250000Y-70050000D03*
%TD*%
D27*
%TO.P,Rcomp1,1*%
%TO.N,Net-(IC1-FB)*%
X199310000Y-69600000D03*
%TO.P,Rcomp1,2*%
%TO.N,Net-(Ccomp2-Pad2)*%
X198290000Y-69600000D03*
%TD*%
D19*
%TO.P,r_ad2,1*%
%TO.N,Net-(IC1-ADDR1)*%
X202200000Y-73770000D03*
%TO.P,r_ad2,2*%
%TO.N,AGND*%
X202200000Y-74790000D03*
%TD*%
D23*
%TO.P,R_bp3,1*%
%TO.N,Net-(IC1-~{RESET}{slash}PGD)*%
X201600000Y-66350000D03*
%TO.P,R_bp3,2*%
%TO.N,Net-(IC1-BP3)*%
X201600000Y-65330000D03*
%TD*%
D12*
%TO.P,C9,1*%
%TO.N,V_A*%
X249500000Y-77250000D03*
%TO.P,C9,2*%
%TO.N,AGND*%
X249500000Y-75350000D03*
%TD*%
D15*
%TO.P,C_avin1,1*%
%TO.N,AGND*%
X202600000Y-65370000D03*
%TO.P,C_avin1,2*%
%TO.N,V_sdec*%
X202600000Y-66330000D03*
%TD*%
D28*
%TO.N,V_sdec*%
X202602600Y-66332600D03*
D29*
X206756000Y-66319400D03*
%TO.N,AGND*%
X200660000Y-78105000D03*
X223520000Y-71120000D03*
X198120000Y-76200000D03*
X228600000Y-55880000D03*
X207518000Y-70358000D03*
X233680000Y-40640000D03*
X203200000Y-76200000D03*
X195580000Y-80010000D03*
X198120000Y-78105000D03*
X213360000Y-66040000D03*
X243840000Y-40640000D03*
X198120000Y-64770000D03*
X203708000Y-69596000D03*
X223520000Y-55880000D03*
X233680000Y-55880000D03*
X243840000Y-60960000D03*
X205600000Y-64389000D03*
X213360000Y-63500000D03*
X215900000Y-66040000D03*
X243840000Y-50800000D03*
X198120000Y-74295000D03*
X203708000Y-70358000D03*
X233680000Y-66040000D03*
X210820000Y-63500000D03*
X198120000Y-80010000D03*
X233680000Y-71120000D03*
X238760000Y-60960000D03*
X228600000Y-40640000D03*
X238760000Y-45720000D03*
X195580000Y-62230000D03*
X248920000Y-50800000D03*
X205994000Y-68834000D03*
X206756000Y-70358000D03*
X200406000Y-64770000D03*
X218440000Y-71120000D03*
X207518000Y-68834000D03*
X233680000Y-45720000D03*
X204470000Y-70358000D03*
X223520000Y-66040000D03*
X203450000Y-64389000D03*
X218440000Y-63500000D03*
X238760000Y-40640000D03*
X218440000Y-50800000D03*
X228600000Y-45720000D03*
X238760000Y-71120000D03*
X205232000Y-70358000D03*
X205994000Y-71120000D03*
X220980000Y-63500000D03*
X202550000Y-64389000D03*
X228600000Y-60960000D03*
X203200000Y-78105000D03*
X243840000Y-66040000D03*
X228600000Y-66040000D03*
X195580000Y-74295000D03*
X218440000Y-66040000D03*
X220980000Y-66040000D03*
X204500000Y-64389000D03*
X223520000Y-50800000D03*
X226060000Y-71120000D03*
X238760000Y-50800000D03*
X218440000Y-60960000D03*
X213360000Y-71120000D03*
X248920000Y-60960000D03*
X215900000Y-71120000D03*
X243840000Y-73660000D03*
X206756000Y-69596000D03*
X200660000Y-76200000D03*
X202946000Y-69596000D03*
X206756000Y-71120000D03*
X206756000Y-68834000D03*
X243840000Y-45720000D03*
X228600000Y-50800000D03*
X207518000Y-69596000D03*
X233680000Y-60960000D03*
X202946000Y-70358000D03*
X205994000Y-70358000D03*
X195580000Y-78105000D03*
X204470000Y-69596000D03*
X202946000Y-68834000D03*
X203708000Y-71120000D03*
X195580000Y-72390000D03*
X215900000Y-63500000D03*
X248920000Y-45720000D03*
X202946000Y-71120000D03*
X198120000Y-62230000D03*
X228600000Y-71120000D03*
X243840000Y-55880000D03*
X204470000Y-68834000D03*
X238760000Y-66040000D03*
X205994000Y-69596000D03*
X223520000Y-63500000D03*
X200660000Y-80010000D03*
X210820000Y-66040000D03*
X203708000Y-68834000D03*
X241300000Y-71120000D03*
X205232000Y-71120000D03*
X223520000Y-60960000D03*
X195580000Y-64770000D03*
X238760000Y-55880000D03*
X248920000Y-40640000D03*
X231140000Y-71120000D03*
X204470000Y-71120000D03*
X195580000Y-76200000D03*
X205232000Y-68834000D03*
X248920000Y-55880000D03*
X218440000Y-55880000D03*
X203200000Y-80010000D03*
X205232000Y-69596000D03*
X207518000Y-71120000D03*
X238760000Y-73660000D03*
X241300000Y-73660000D03*
X233680000Y-50800000D03*
X220980000Y-71120000D03*
X236220000Y-71120000D03*
X198120000Y-72390000D03*
X210820000Y-71120000D03*
%TO.N,V_A*%
X222250000Y-83820000D03*
X242570000Y-78740000D03*
X247650000Y-78740000D03*
X234950000Y-83820000D03*
X245110000Y-83820000D03*
X229870000Y-83820000D03*
X242570000Y-83820000D03*
X232410000Y-86360000D03*
X222250000Y-86360000D03*
X245110000Y-81280000D03*
X237490000Y-88900000D03*
X224790000Y-88900000D03*
X242570000Y-81280000D03*
X237490000Y-81280000D03*
X229870000Y-86360000D03*
X240030000Y-86360000D03*
X245110000Y-78740000D03*
X234950000Y-86360000D03*
X240030000Y-83820000D03*
X227330000Y-88900000D03*
X227330000Y-86360000D03*
X229870000Y-88900000D03*
X240030000Y-78740000D03*
X234950000Y-88900000D03*
X232410000Y-88900000D03*
X237490000Y-86360000D03*
X240030000Y-81280000D03*
X242570000Y-86360000D03*
X250190000Y-78740000D03*
X222250000Y-88900000D03*
X224790000Y-86360000D03*
X245110000Y-86360000D03*
X245110000Y-88900000D03*
X240030000Y-88900000D03*
X242570000Y-88900000D03*
X227330000Y-83820000D03*
X237490000Y-83820000D03*
X224790000Y-83820000D03*
X232410000Y-83820000D03*
%TO.N,rsn*%
X200700000Y-68800000D03*
X253150000Y-76750000D03*
%TO.N,rsp*%
X200700000Y-68072000D03*
X251350000Y-76750000D03*
%TD*%
%TO.N,V_sdec*%
D30*
X204000000Y-67250000D02*
X204000000Y-67600000D01*
X202602600Y-66332600D02*
X203051300Y-66781300D01*
X203531300Y-66781300D02*
X204000000Y-67250000D01*
X202600000Y-66330000D02*
X202602600Y-66332600D01*
X203051300Y-66781300D02*
X203531300Y-66781300D01*
%TO.N,AGND*%
X201800000Y-70800000D02*
X204500000Y-70800000D01*
X205500000Y-67600000D02*
X205500000Y-69800000D01*
%TO.N,Net-(IC1-SW_1)*%
D31*
X208350000Y-72850000D02*
X208000000Y-72500000D01*
X210120000Y-72850000D02*
X208350000Y-72850000D01*
%TO.N,Net-(CL1-Pad2)*%
X211080000Y-72850000D02*
X212530000Y-72850000D01*
%TO.N,Net-(IC1-COMP)*%
D30*
X200550000Y-70780000D02*
X199360000Y-70780000D01*
X201800000Y-70300000D02*
X201030000Y-70300000D01*
X201030000Y-70300000D02*
X200550000Y-70780000D01*
X199360000Y-70780000D02*
X199330000Y-70750000D01*
%TO.N,Net-(Ccomp2-Pad2)*%
X198370000Y-69680000D02*
X198290000Y-69600000D01*
X198370000Y-70750000D02*
X198370000Y-69680000D01*
%TO.N,Net-(Rdifo1-Pad2)*%
X199100000Y-66410000D02*
X199100000Y-67140000D01*
X197150000Y-67490000D02*
X198390000Y-66250000D01*
X198940000Y-66250000D02*
X199100000Y-66410000D01*
X198390000Y-66250000D02*
X198940000Y-66250000D01*
X199100000Y-67140000D02*
X199310000Y-67350000D01*
%TO.N,Net-(IC1-DIFFO)*%
X199960000Y-68710000D02*
X200500000Y-69250000D01*
X199960000Y-66250000D02*
X199960000Y-68710000D01*
X200500000Y-69250000D02*
X201750000Y-69250000D01*
X201750000Y-69250000D02*
X201800000Y-69300000D01*
%TO.N,Net-(IC1-BP6)*%
X204500000Y-67600000D02*
X204500000Y-66360000D01*
X204500000Y-66360000D02*
X204450000Y-66310000D01*
X203500000Y-66310000D02*
X204540000Y-66310000D01*
X204540000Y-66310000D02*
X204550000Y-66300000D01*
%TO.N,CLK*%
X204475000Y-86575000D02*
X204475000Y-88265000D01*
X204500000Y-86550000D02*
X204475000Y-86575000D01*
X204500000Y-86550000D02*
X204500000Y-72500000D01*
%TO.N,Data*%
X204050000Y-72550000D02*
X204050000Y-84250000D01*
X204050000Y-84250000D02*
X201930000Y-86370000D01*
X201930000Y-86370000D02*
X201930000Y-86500000D01*
X201930000Y-86500000D02*
X201935000Y-86505000D01*
X201935000Y-86505000D02*
X201935000Y-88265000D01*
X204000000Y-72500000D02*
X204050000Y-72550000D01*
%TO.N,rsn*%
X252260000Y-75780000D02*
X252250000Y-75790000D01*
X252240000Y-75800000D02*
X252250000Y-75790000D01*
X253150000Y-76750000D02*
X252240000Y-75840000D01*
X252260000Y-74550000D02*
X252260000Y-75780000D01*
X200700000Y-68800000D02*
X201800000Y-68800000D01*
X252240000Y-75840000D02*
X252240000Y-75800000D01*
%TO.N,Net-(IC1-BP3)*%
X205600000Y-66310000D02*
X205140000Y-65850000D01*
X205000000Y-67600000D02*
X205000000Y-66910000D01*
X205000000Y-66910000D02*
X205600000Y-66310000D01*
X205140000Y-65850000D02*
X202120000Y-65850000D01*
X202120000Y-65850000D02*
X201600000Y-65330000D01*
%TO.N,Net-(IC1-ADDR0)*%
X203500000Y-72500000D02*
X203500000Y-73700000D01*
%TO.N,Net-(IC1-BOOT)*%
X205500000Y-73670000D02*
X205320000Y-73850000D01*
X205500000Y-72500000D02*
X205500000Y-73670000D01*
%TO.N,rsp*%
X200700000Y-68072000D02*
X200828000Y-68200000D01*
X252250000Y-77950000D02*
X252250000Y-76750000D01*
X200828000Y-68200000D02*
X201700000Y-68200000D01*
X252250000Y-76750000D02*
X251350000Y-76750000D01*
X201700000Y-68200000D02*
X201800000Y-68300000D01*
%TO.N,Net-(IC1-FB)*%
X199530000Y-69820000D02*
X199310000Y-69600000D01*
X200550000Y-69820000D02*
X199530000Y-69820000D01*
X201800000Y-69800000D02*
X200570000Y-69800000D01*
X199310000Y-68550000D02*
X199260000Y-68500000D01*
X199260000Y-68500000D02*
X199260000Y-68320000D01*
X200570000Y-69800000D02*
X200550000Y-69820000D01*
X199310000Y-69600000D02*
X199310000Y-68550000D01*
X199260000Y-68320000D02*
X198290000Y-67350000D01*
%TO.N,Net-(IC1-RT)*%
X202400000Y-72500000D02*
X201130000Y-73770000D01*
X201130000Y-73770000D02*
X201100000Y-73770000D01*
X202500000Y-72500000D02*
X202400000Y-72500000D01*
%TO.N,Net-(Cdifo1-Pad1)*%
X197160000Y-68500000D02*
X197150000Y-68510000D01*
X198300000Y-68500000D02*
X197160000Y-68500000D01*
%TO.N,Net-(IC1-ADDR1)*%
X203000000Y-72970000D02*
X202200000Y-73770000D01*
X203000000Y-72500000D02*
X203000000Y-72970000D01*
%TO.N,Net-(IC1-~{RESET}{slash}PGD)*%
X202259900Y-67009900D02*
X203259900Y-67009900D01*
X201600000Y-66350000D02*
X202259900Y-67009900D01*
X203259900Y-67009900D02*
X203500000Y-67250000D01*
X203500000Y-67250000D02*
X203500000Y-67600000D01*
%TD*%
%TA.AperFunction,Conductor*%
%TO.N,V_sdec*%
G36*
X209620039Y-37350185D02*
G01*
X209665794Y-37402989D01*
X209677000Y-37454500D01*
X209677000Y-57352185D01*
X209675754Y-57369721D01*
X208927339Y-62608620D01*
X208898371Y-62672202D01*
X208856990Y-62703466D01*
X208769820Y-62744114D01*
X208684114Y-62829820D01*
X208632891Y-62939668D01*
X208632889Y-62939676D01*
X208626301Y-62989717D01*
X208626300Y-62989734D01*
X208626300Y-63410265D01*
X208626301Y-63410282D01*
X208632889Y-63460323D01*
X208632891Y-63460331D01*
X208684114Y-63570179D01*
X208732899Y-63618964D01*
X208735056Y-63622915D01*
X208738847Y-63625346D01*
X208751649Y-63653303D01*
X208766384Y-63680287D01*
X208766588Y-63685924D01*
X208767938Y-63688872D01*
X208767974Y-63724166D01*
X208766857Y-63731992D01*
X208737897Y-63795577D01*
X208731783Y-63802152D01*
X208654113Y-63879822D01*
X208602891Y-63989668D01*
X208602889Y-63989676D01*
X208596301Y-64039717D01*
X208596300Y-64039734D01*
X208596300Y-64460265D01*
X208596301Y-64460282D01*
X208602889Y-64510323D01*
X208602891Y-64510330D01*
X208627702Y-64563537D01*
X208638194Y-64632614D01*
X208638074Y-64633478D01*
X208167298Y-67928909D01*
X208158647Y-67947896D01*
X208154664Y-67968379D01*
X208140481Y-67987768D01*
X208138330Y-67992491D01*
X208134143Y-67997094D01*
X208128746Y-68002735D01*
X208128140Y-68003140D01*
X208127633Y-68003897D01*
X208120149Y-68011721D01*
X208098876Y-68023954D01*
X208080049Y-68039692D01*
X208066667Y-68042478D01*
X208059581Y-68046554D01*
X208049488Y-68046056D01*
X208030550Y-68050000D01*
X205977700Y-68050000D01*
X205910661Y-68030315D01*
X205864906Y-67977511D01*
X205853700Y-67926000D01*
X205853700Y-67180000D01*
X205873385Y-67112961D01*
X205926189Y-67067206D01*
X205977700Y-67056000D01*
X206150000Y-67056000D01*
X206150000Y-61087000D01*
X200784000Y-61087000D01*
X200716961Y-61067315D01*
X200671206Y-61014511D01*
X200660000Y-60963000D01*
X200660000Y-37454500D01*
X200679685Y-37387461D01*
X200732489Y-37341706D01*
X200784000Y-37330500D01*
X209553000Y-37330500D01*
X209620039Y-37350185D01*
G37*
%TD.AperFunction*%
%TD*%
%TA.AperFunction,Conductor*%
%TO.N,Net-(IC1-SW_1)*%
G36*
X207735478Y-72080023D02*
G01*
X207750476Y-72084427D01*
X207765473Y-72094064D01*
X207782572Y-72099084D01*
X207809247Y-72122194D01*
X207815992Y-72129977D01*
X207840346Y-72173271D01*
X208085588Y-72936886D01*
X209525216Y-77419502D01*
X209531116Y-77454300D01*
X209531465Y-77468175D01*
X209526874Y-77485400D01*
X209527323Y-77503221D01*
X209518063Y-77518459D01*
X209513472Y-77535688D01*
X209500298Y-77547696D01*
X209491041Y-77562932D01*
X209461839Y-77582755D01*
X209455849Y-77585675D01*
X209399494Y-77598197D01*
X206950429Y-77558304D01*
X206915577Y-77552711D01*
X206900656Y-77548064D01*
X206842506Y-77509339D01*
X206837095Y-77502885D01*
X206811326Y-77451247D01*
X206355397Y-75486291D01*
X206354955Y-75484307D01*
X206354519Y-75482272D01*
X206354112Y-75480294D01*
X205853514Y-72942812D01*
X205851758Y-72930888D01*
X205850586Y-72918886D01*
X205850000Y-72906845D01*
X205850000Y-72216829D01*
X205855023Y-72181893D01*
X205859427Y-72166895D01*
X205897172Y-72108144D01*
X205897200Y-72108119D01*
X205897199Y-72108119D01*
X205898541Y-72106956D01*
X205953420Y-72079477D01*
X205960979Y-72077833D01*
X205987332Y-72075000D01*
X207700542Y-72075000D01*
X207735478Y-72080023D01*
G37*
%TD.AperFunction*%
%TD*%
%TA.AperFunction,Conductor*%
%TO.N,AGND*%
G36*
X254152877Y-37335602D02*
G01*
X254168121Y-37340078D01*
X254183368Y-37349876D01*
X254200757Y-37354985D01*
X254227829Y-37378449D01*
X254227846Y-37378460D01*
X254227858Y-37378474D01*
X254229063Y-37379865D01*
X254256946Y-37435572D01*
X254258618Y-37443255D01*
X254261500Y-37470048D01*
X254261500Y-76003116D01*
X254256395Y-76038617D01*
X254251920Y-76053856D01*
X254242128Y-76069093D01*
X254237029Y-76086466D01*
X254213546Y-76113572D01*
X254212241Y-76114703D01*
X254156293Y-76142652D01*
X254148418Y-76144351D01*
X254121416Y-76147184D01*
X252991034Y-76143339D01*
X252955555Y-76138115D01*
X252943247Y-76134455D01*
X252943227Y-76134450D01*
X252939879Y-76133722D01*
X252877576Y-76099698D01*
X252813417Y-76035539D01*
X252813412Y-76035534D01*
X252791923Y-76006828D01*
X252779112Y-75983366D01*
X252763700Y-75922981D01*
X252763700Y-75609735D01*
X252763700Y-75609728D01*
X252757110Y-75559672D01*
X252705886Y-75449821D01*
X252705884Y-75449819D01*
X252705884Y-75449818D01*
X252620180Y-75364114D01*
X252599950Y-75354681D01*
X252586720Y-75343031D01*
X252586025Y-75342714D01*
X252583458Y-75340158D01*
X252579772Y-75336913D01*
X252580183Y-75336445D01*
X252577981Y-75332435D01*
X252541415Y-75289979D01*
X252538479Y-75283515D01*
X252527200Y-75231408D01*
X252527200Y-75145453D01*
X252532300Y-75109967D01*
X252536852Y-75094464D01*
X252574869Y-75035056D01*
X252585280Y-75025965D01*
X252585279Y-75025963D01*
X252605373Y-75008417D01*
X252608415Y-75001352D01*
X252616307Y-74992686D01*
X252676727Y-74932267D01*
X252727206Y-74824014D01*
X252733700Y-74774688D01*
X252733700Y-74325312D01*
X252727206Y-74275986D01*
X252677881Y-74170208D01*
X252676841Y-74167845D01*
X252592270Y-74083274D01*
X252484012Y-74032793D01*
X252484009Y-74032792D01*
X252434696Y-74026300D01*
X252434692Y-74026300D01*
X252434688Y-74026300D01*
X252085312Y-74026300D01*
X252085307Y-74026300D01*
X252085302Y-74026300D01*
X252035988Y-74032792D01*
X251950361Y-74072720D01*
X251950358Y-74072722D01*
X251927731Y-74083274D01*
X251927730Y-74083274D01*
X251843274Y-74167730D01*
X251843274Y-74167731D01*
X251832722Y-74190358D01*
X251832720Y-74190361D01*
X251792792Y-74275988D01*
X251786300Y-74325302D01*
X251786300Y-74774696D01*
X251792792Y-74824009D01*
X251792838Y-74824161D01*
X251793519Y-74825570D01*
X251842112Y-74929779D01*
X251843156Y-74932152D01*
X251910708Y-74999704D01*
X251924857Y-75024102D01*
X251937527Y-75035082D01*
X251960185Y-75049703D01*
X251967387Y-75060956D01*
X251970806Y-75063919D01*
X251979518Y-75079910D01*
X251981512Y-75084298D01*
X251992800Y-75136425D01*
X251992800Y-75213044D01*
X251987694Y-75248548D01*
X251983142Y-75264048D01*
X251945138Y-75323440D01*
X251933504Y-75333602D01*
X251903864Y-75352901D01*
X251879818Y-75364113D01*
X251794116Y-75449815D01*
X251794116Y-75449816D01*
X251742889Y-75559672D01*
X251742888Y-75559675D01*
X251736300Y-75609718D01*
X251736300Y-75970283D01*
X251737350Y-75978254D01*
X251737351Y-75978257D01*
X251736922Y-76014118D01*
X251734721Y-76028228D01*
X251704459Y-76092452D01*
X251644800Y-76129972D01*
X251631521Y-76133761D01*
X251596519Y-76138596D01*
X225571767Y-76050073D01*
X225557332Y-76049194D01*
X225543047Y-76047497D01*
X225528815Y-76044971D01*
X213118230Y-73099477D01*
X213118229Y-73099476D01*
X213118229Y-73099477D01*
X213084871Y-73086315D01*
X213071072Y-73078439D01*
X213021826Y-73027302D01*
X213017992Y-73019955D01*
X213003700Y-72961669D01*
X213003700Y-72625319D01*
X213003700Y-72625312D01*
X212997206Y-72575986D01*
X212947881Y-72470208D01*
X212946841Y-72467845D01*
X212862270Y-72383274D01*
X212754012Y-72332793D01*
X212754009Y-72332792D01*
X212704696Y-72326300D01*
X212704692Y-72326300D01*
X212704688Y-72326300D01*
X212355312Y-72326300D01*
X212355307Y-72326300D01*
X212355302Y-72326300D01*
X212305988Y-72332792D01*
X212217055Y-72374262D01*
X212217052Y-72374264D01*
X212197731Y-72383274D01*
X212197730Y-72383274D01*
X212120474Y-72460530D01*
X212117816Y-72462905D01*
X212117194Y-72463200D01*
X212112551Y-72467355D01*
X212083411Y-72490648D01*
X212029092Y-72515851D01*
X212025393Y-72516579D01*
X212023642Y-72516924D01*
X211999292Y-72519300D01*
X211615670Y-72519300D01*
X211615669Y-72519299D01*
X211615669Y-72519300D01*
X211580173Y-72514196D01*
X211554526Y-72506665D01*
X211500931Y-72474865D01*
X211420181Y-72394115D01*
X211311883Y-72343615D01*
X211310474Y-72342934D01*
X211310323Y-72342888D01*
X211260282Y-72336300D01*
X211260276Y-72336300D01*
X211260272Y-72336300D01*
X210899728Y-72336300D01*
X210899723Y-72336300D01*
X210899718Y-72336300D01*
X210849675Y-72342888D01*
X210849672Y-72342889D01*
X210739816Y-72394115D01*
X210739815Y-72394118D01*
X210701902Y-72432030D01*
X210673197Y-72453518D01*
X210659256Y-72461131D01*
X210641551Y-72464983D01*
X210639590Y-72466054D01*
X210637362Y-72465894D01*
X210589883Y-72476225D01*
X210589880Y-72476225D01*
X210588048Y-72476094D01*
X210528917Y-72456414D01*
X210522302Y-72452163D01*
X210501329Y-72435263D01*
X210460181Y-72394115D01*
X210350326Y-72342889D01*
X210350323Y-72342888D01*
X210300280Y-72336300D01*
X210300276Y-72336300D01*
X210300272Y-72336300D01*
X209939856Y-72336300D01*
X209933437Y-72336136D01*
X209917901Y-72335342D01*
X209904789Y-72334672D01*
X209882127Y-72331430D01*
X208384131Y-71975899D01*
X208350772Y-71962737D01*
X208320460Y-71945436D01*
X208302148Y-71931457D01*
X208301647Y-71932068D01*
X208296863Y-71928142D01*
X208229478Y-71883117D01*
X208170069Y-71871300D01*
X208170064Y-71871300D01*
X208094115Y-71871300D01*
X208094112Y-71871299D01*
X208094112Y-71871300D01*
X208058614Y-71866195D01*
X208043375Y-71861720D01*
X207983649Y-71823335D01*
X207983641Y-71823325D01*
X207982436Y-71821934D01*
X207954549Y-71766212D01*
X207952878Y-71758529D01*
X207950000Y-71731751D01*
X207950000Y-68661528D01*
X207950234Y-68653854D01*
X207950701Y-68646201D01*
X207951402Y-68638555D01*
X207952069Y-68633103D01*
X207985500Y-68360209D01*
X208013635Y-68295028D01*
X208072546Y-68255404D01*
X208073631Y-68255066D01*
X208074840Y-68254695D01*
X208074844Y-68254695D01*
X208076843Y-68254081D01*
X208088080Y-68251196D01*
X208092039Y-68250372D01*
X208092038Y-68250371D01*
X208127952Y-68242894D01*
X208128554Y-68242636D01*
X208131170Y-68242034D01*
X208137399Y-68238854D01*
X208141319Y-68237179D01*
X208145434Y-68236689D01*
X208166280Y-68229452D01*
X208170061Y-68228700D01*
X208170064Y-68228700D01*
X208229480Y-68216881D01*
X208296860Y-68171860D01*
X208341881Y-68104480D01*
X208353700Y-68045064D01*
X208353700Y-68045053D01*
X208354307Y-68038899D01*
X208354668Y-68038934D01*
X208358232Y-68012602D01*
X208359295Y-68008744D01*
X208359527Y-68008215D01*
X208359731Y-68007164D01*
X208361022Y-68002482D01*
X208361150Y-68002273D01*
X208361563Y-68000577D01*
X208373898Y-67958430D01*
X208373900Y-67958424D01*
X208540018Y-66795590D01*
X208550557Y-66760161D01*
X208597110Y-66660328D01*
X208603700Y-66610272D01*
X208603700Y-66358780D01*
X208604966Y-66340961D01*
X208844685Y-64662928D01*
X208844790Y-64662189D01*
X208844910Y-64661325D01*
X208844528Y-64601274D01*
X208834036Y-64532197D01*
X208831663Y-64524347D01*
X208816851Y-64475344D01*
X208816849Y-64475342D01*
X208816848Y-64475336D01*
X208816803Y-64475240D01*
X208816792Y-64475191D01*
X208815244Y-64471139D01*
X208815843Y-64470909D01*
X208805000Y-64421995D01*
X208805000Y-64078001D01*
X208807475Y-64066831D01*
X208806425Y-64059105D01*
X208816795Y-64024773D01*
X208816938Y-64024465D01*
X208818308Y-64021528D01*
X208843413Y-63985666D01*
X208879356Y-63949725D01*
X208884617Y-63944270D01*
X208890731Y-63937695D01*
X208927825Y-63882081D01*
X208956785Y-63818496D01*
X208973463Y-63761481D01*
X208974580Y-63753655D01*
X208976674Y-63723953D01*
X208976638Y-63688659D01*
X208976637Y-63688653D01*
X208975909Y-63681944D01*
X208976194Y-63681913D01*
X208974921Y-63672132D01*
X208974812Y-63669645D01*
X208974811Y-63669639D01*
X208965546Y-63636853D01*
X208964513Y-63633200D01*
X208957688Y-63601978D01*
X208956338Y-63599030D01*
X208955026Y-63599629D01*
X208949827Y-63581231D01*
X208949827Y-63581230D01*
X208949826Y-63581229D01*
X208949554Y-63580264D01*
X208940468Y-63563626D01*
X208936496Y-63555700D01*
X208928598Y-63538453D01*
X208916574Y-63515944D01*
X208916573Y-63515942D01*
X208910876Y-63510139D01*
X208903416Y-63501831D01*
X208901627Y-63499652D01*
X208880472Y-63471391D01*
X208869050Y-63459969D01*
X208865126Y-63455189D01*
X208862213Y-63448333D01*
X208848316Y-63428486D01*
X208846803Y-63425241D01*
X208840696Y-63397693D01*
X208837362Y-63389846D01*
X208838056Y-63385785D01*
X208835000Y-63371996D01*
X208835000Y-63028001D01*
X208846797Y-62974769D01*
X208848310Y-62971523D01*
X208851297Y-62967256D01*
X208851925Y-62964370D01*
X208873415Y-62935663D01*
X208875663Y-62933415D01*
X208911506Y-62908318D01*
X208945190Y-62892612D01*
X208982797Y-62869984D01*
X209005530Y-62852808D01*
X209024160Y-62838734D01*
X209024178Y-62838720D01*
X209031939Y-62832562D01*
X209088289Y-62758729D01*
X209117257Y-62695147D01*
X209133941Y-62638135D01*
X209882356Y-57399236D01*
X209883929Y-57384513D01*
X209885175Y-57366977D01*
X209885700Y-57352185D01*
X209885700Y-37456500D01*
X209905702Y-37388379D01*
X209959358Y-37341886D01*
X210011700Y-37330500D01*
X254117385Y-37330500D01*
X254152877Y-37335602D01*
G37*
%TD.AperFunction*%
%TD*%
%TA.AperFunction,Conductor*%
%TO.N,V_A*%
G36*
X250545993Y-76769685D02*
G01*
X250591748Y-76822489D01*
X250600571Y-76849809D01*
X250624493Y-76970072D01*
X250624495Y-76970080D01*
X250681371Y-77107391D01*
X250763939Y-77230964D01*
X250763945Y-77230971D01*
X250869028Y-77336054D01*
X250869035Y-77336060D01*
X250992608Y-77418628D01*
X250992609Y-77418628D01*
X250992610Y-77418629D01*
X251129920Y-77475505D01*
X251275683Y-77504499D01*
X251275687Y-77504500D01*
X251363753Y-77504500D01*
X251430792Y-77524185D01*
X251476547Y-77576989D01*
X251486491Y-77646147D01*
X251482828Y-77663098D01*
X251482335Y-77664792D01*
X251482334Y-77664797D01*
X251479500Y-77700811D01*
X251479500Y-78199169D01*
X251479501Y-78199191D01*
X251482335Y-78235205D01*
X251527129Y-78389388D01*
X251527131Y-78389393D01*
X251608863Y-78527595D01*
X251608869Y-78527603D01*
X251722396Y-78641130D01*
X251722400Y-78641133D01*
X251722402Y-78641135D01*
X251860607Y-78722869D01*
X251901268Y-78734682D01*
X252014791Y-78767664D01*
X252014794Y-78767664D01*
X252014796Y-78767665D01*
X252050819Y-78770500D01*
X252449180Y-78770499D01*
X252485204Y-78767665D01*
X252639393Y-78722869D01*
X252777598Y-78641135D01*
X252891135Y-78527598D01*
X252972869Y-78389393D01*
X253017665Y-78235204D01*
X253020500Y-78199181D01*
X253020499Y-77700820D01*
X253017665Y-77664796D01*
X253017170Y-77663092D01*
X253017172Y-77662099D01*
X253016527Y-77658563D01*
X253017183Y-77658443D01*
X253017370Y-77593225D01*
X253055313Y-77534555D01*
X253118951Y-77505712D01*
X253136247Y-77504500D01*
X253224313Y-77504500D01*
X253224314Y-77504499D01*
X253370080Y-77475505D01*
X253507390Y-77418629D01*
X253630966Y-77336059D01*
X253736059Y-77230966D01*
X253818629Y-77107390D01*
X253875505Y-76970080D01*
X253887440Y-76910079D01*
X253899429Y-76849809D01*
X253914139Y-76821685D01*
X253927333Y-76792797D01*
X253930222Y-76790939D01*
X253931814Y-76787898D01*
X253959392Y-76772193D01*
X253986111Y-76755023D01*
X253990706Y-76754362D01*
X253992530Y-76753324D01*
X254021046Y-76750000D01*
X254137500Y-76750000D01*
X254204539Y-76769685D01*
X254250294Y-76822489D01*
X254261500Y-76874000D01*
X254261500Y-91069500D01*
X254241815Y-91136539D01*
X254189011Y-91182294D01*
X254137500Y-91193500D01*
X218299120Y-91193500D01*
X218232081Y-91173815D01*
X218186326Y-91121011D01*
X218175120Y-91069663D01*
X218175120Y-91069500D01*
X218165319Y-83613248D01*
X218150054Y-82952380D01*
X218150037Y-82947603D01*
X218243578Y-76910079D01*
X218264299Y-76843353D01*
X218317805Y-76798421D01*
X218367563Y-76788000D01*
X239650155Y-76788000D01*
X239650156Y-76788000D01*
X239890729Y-76751409D01*
X239909374Y-76750000D01*
X250478954Y-76750000D01*
X250545993Y-76769685D01*
G37*
%TD.AperFunction*%
%TD*%
%TA.AperFunction,Conductor*%
%TO.N,AGND*%
G36*
X205865600Y-61420284D02*
G01*
X205921016Y-61475700D01*
X205941300Y-61551400D01*
X205941300Y-65674900D01*
X205921016Y-65750600D01*
X205865600Y-65806016D01*
X205789900Y-65826300D01*
X205576823Y-65826300D01*
X205537638Y-65821141D01*
X205510409Y-65813845D01*
X205442538Y-65774660D01*
X205291357Y-65623479D01*
X205291355Y-65623477D01*
X205291352Y-65623475D01*
X205291351Y-65623475D01*
X205193152Y-65582800D01*
X205193151Y-65582800D01*
X205193149Y-65582800D01*
X202313322Y-65582800D01*
X202283520Y-65579838D01*
X202278798Y-65578889D01*
X202274137Y-65577641D01*
X202272577Y-65577641D01*
X202264608Y-65576041D01*
X202260117Y-65573816D01*
X202236489Y-65567485D01*
X202229937Y-65564772D01*
X202208203Y-65548099D01*
X202194382Y-65541253D01*
X202189273Y-65533578D01*
X202167755Y-65517071D01*
X202156738Y-65500584D01*
X202143980Y-65478484D01*
X202123700Y-65402790D01*
X202123700Y-65155311D01*
X202123700Y-65155310D01*
X202117206Y-65105986D01*
X202066727Y-64997733D01*
X201982266Y-64913272D01*
X201982267Y-64913272D01*
X201874014Y-64862793D01*
X201824689Y-64856300D01*
X201824688Y-64856300D01*
X201375312Y-64856300D01*
X201375311Y-64856300D01*
X201325984Y-64862793D01*
X201217732Y-64913272D01*
X201133272Y-64997732D01*
X201082793Y-65105984D01*
X201076300Y-65155310D01*
X201076300Y-65504688D01*
X201082793Y-65554014D01*
X201133272Y-65662266D01*
X201189853Y-65718847D01*
X201213913Y-65750202D01*
X201222052Y-65764299D01*
X201242336Y-65839999D01*
X201222053Y-65915699D01*
X201222051Y-65915702D01*
X201213913Y-65929797D01*
X201189854Y-65961151D01*
X201133272Y-66017732D01*
X201082793Y-66125984D01*
X201082793Y-66125986D01*
X201076300Y-66175311D01*
X201076300Y-66524688D01*
X201082793Y-66574013D01*
X201133272Y-66682266D01*
X201133273Y-66682267D01*
X201217733Y-66766727D01*
X201325986Y-66817206D01*
X201375312Y-66823700D01*
X201613177Y-66823700D01*
X201652359Y-66828858D01*
X201658530Y-66830511D01*
X201679589Y-66836154D01*
X201747458Y-66875336D01*
X202087859Y-67215737D01*
X202111918Y-67247091D01*
X202126015Y-67271507D01*
X202146300Y-67347207D01*
X202146300Y-67774967D01*
X202141139Y-67814159D01*
X202136926Y-67829879D01*
X202097738Y-67897748D01*
X202029879Y-67936926D01*
X202029865Y-67936929D01*
X202029865Y-67936930D01*
X202029864Y-67936929D01*
X202014159Y-67941139D01*
X201974967Y-67946300D01*
X201830766Y-67946300D01*
X201801232Y-67943391D01*
X201772537Y-67937682D01*
X201762713Y-67934703D01*
X201753151Y-67932800D01*
X201753150Y-67932800D01*
X201753149Y-67932800D01*
X201753148Y-67932800D01*
X201255482Y-67932800D01*
X201216294Y-67927640D01*
X201199031Y-67923014D01*
X201131163Y-67883830D01*
X201118527Y-67871194D01*
X201094466Y-67839837D01*
X201088717Y-67829879D01*
X201066251Y-67790966D01*
X200981034Y-67705749D01*
X200981032Y-67705747D01*
X200964271Y-67696070D01*
X200927243Y-67659043D01*
X200760260Y-67614300D01*
X200760257Y-67614300D01*
X200639743Y-67614300D01*
X200639739Y-67614300D01*
X200523336Y-67645489D01*
X200471561Y-67675382D01*
X200435038Y-67690509D01*
X200421424Y-67694156D01*
X200343053Y-67694152D01*
X200275185Y-67654963D01*
X200236006Y-67587098D01*
X200232359Y-67573487D01*
X200227200Y-67534302D01*
X200227200Y-66196849D01*
X200226975Y-66195899D01*
X200225144Y-66191887D01*
X200200931Y-66133431D01*
X200192316Y-66105030D01*
X200186609Y-66076339D01*
X200183700Y-66046802D01*
X200183700Y-66025311D01*
X200182527Y-66016399D01*
X200177206Y-65975986D01*
X200126727Y-65867733D01*
X200042266Y-65783272D01*
X200042267Y-65783272D01*
X199934014Y-65732793D01*
X199884689Y-65726300D01*
X199884688Y-65726300D01*
X199535312Y-65726300D01*
X199535311Y-65726300D01*
X199485984Y-65732793D01*
X199377732Y-65783272D01*
X199321151Y-65839854D01*
X199289797Y-65863913D01*
X199275702Y-65872051D01*
X199200002Y-65892336D01*
X199124302Y-65872053D01*
X199124299Y-65872052D01*
X199110202Y-65863913D01*
X199078847Y-65839853D01*
X199022266Y-65783272D01*
X199022267Y-65783272D01*
X198914014Y-65732793D01*
X198864689Y-65726300D01*
X198864688Y-65726300D01*
X198515312Y-65726300D01*
X198515311Y-65726300D01*
X198465984Y-65732793D01*
X198357732Y-65783272D01*
X198273271Y-65867733D01*
X198222791Y-65975987D01*
X198222791Y-65975988D01*
X198222497Y-65978226D01*
X198212267Y-66016399D01*
X198200135Y-66045687D01*
X198167317Y-66094803D01*
X197304262Y-66957859D01*
X197272910Y-66981917D01*
X197248495Y-66996014D01*
X197172796Y-67016300D01*
X196925311Y-67016300D01*
X196875984Y-67022793D01*
X196767732Y-67073272D01*
X196683272Y-67157732D01*
X196632793Y-67265984D01*
X196626300Y-67315310D01*
X196626300Y-67664688D01*
X196632793Y-67714014D01*
X196683272Y-67822266D01*
X196739853Y-67878847D01*
X196763913Y-67910202D01*
X196772052Y-67924299D01*
X196792336Y-67999999D01*
X196772053Y-68075699D01*
X196772051Y-68075702D01*
X196763913Y-68089797D01*
X196739854Y-68121151D01*
X196683272Y-68177732D01*
X196632793Y-68285984D01*
X196630918Y-68300229D01*
X196626300Y-68335311D01*
X196626300Y-68684688D01*
X196632793Y-68734013D01*
X196683272Y-68842266D01*
X196683273Y-68842267D01*
X196767733Y-68926727D01*
X196875986Y-68977206D01*
X196925312Y-68983700D01*
X197374688Y-68983700D01*
X197424014Y-68977206D01*
X197532267Y-68926727D01*
X197598401Y-68860592D01*
X197608117Y-68851689D01*
X197628105Y-68834913D01*
X197628106Y-68834914D01*
X197640728Y-68824320D01*
X197711750Y-68791194D01*
X197789818Y-68798015D01*
X197791562Y-68798649D01*
X197791900Y-68798773D01*
X197856093Y-68843730D01*
X197866180Y-68859565D01*
X197866517Y-68859330D01*
X197874112Y-68870177D01*
X197928951Y-68925016D01*
X197957456Y-68964654D01*
X197962277Y-68974348D01*
X197963068Y-68975938D01*
X197978613Y-69052751D01*
X197958622Y-69119051D01*
X197950380Y-69133327D01*
X197926320Y-69164684D01*
X197873272Y-69217731D01*
X197822793Y-69325984D01*
X197816300Y-69375310D01*
X197816300Y-69824688D01*
X197822793Y-69874014D01*
X197873272Y-69982266D01*
X197957735Y-70066729D01*
X197968587Y-70074327D01*
X197968107Y-70075011D01*
X197981280Y-70083401D01*
X197993744Y-70093860D01*
X198038694Y-70158058D01*
X198045524Y-70236119D01*
X198045065Y-70238723D01*
X198019981Y-70299284D01*
X198016673Y-70304008D01*
X197999713Y-70324220D01*
X197944110Y-70379823D01*
X197892890Y-70489668D01*
X197886300Y-70539726D01*
X197886300Y-70960272D01*
X197892890Y-71010330D01*
X197944110Y-71120175D01*
X197944113Y-71120178D01*
X197944114Y-71120179D01*
X198029821Y-71205886D01*
X198139672Y-71257110D01*
X198189728Y-71263700D01*
X198550272Y-71263700D01*
X198600328Y-71257110D01*
X198710179Y-71205886D01*
X198728849Y-71187215D01*
X198760202Y-71163157D01*
X198774296Y-71155020D01*
X198774300Y-71155017D01*
X198849999Y-71134734D01*
X198925698Y-71155016D01*
X198938043Y-71162144D01*
X198939801Y-71163159D01*
X198971152Y-71187217D01*
X198989821Y-71205886D01*
X199099672Y-71257110D01*
X199149728Y-71263700D01*
X199510272Y-71263700D01*
X199560328Y-71257110D01*
X199670179Y-71205886D01*
X199703850Y-71172214D01*
X199735202Y-71148157D01*
X199749296Y-71140020D01*
X199749300Y-71140017D01*
X199824999Y-71119734D01*
X199900698Y-71140016D01*
X199913043Y-71147144D01*
X199914801Y-71148159D01*
X199946152Y-71172217D01*
X199979821Y-71205886D01*
X200089672Y-71257110D01*
X200139728Y-71263700D01*
X200560272Y-71263700D01*
X200610328Y-71257110D01*
X200720179Y-71205886D01*
X200805886Y-71120179D01*
X200857110Y-71010328D01*
X200863700Y-70960272D01*
X200863700Y-70926822D01*
X200866659Y-70897033D01*
X200867607Y-70892307D01*
X200868859Y-70887636D01*
X200868859Y-70886070D01*
X200870455Y-70878117D01*
X200872690Y-70873603D01*
X200879027Y-70849953D01*
X200882432Y-70841735D01*
X200915243Y-70792634D01*
X200956543Y-70751335D01*
X201055984Y-70651892D01*
X201087336Y-70627836D01*
X201097693Y-70621856D01*
X201102816Y-70618900D01*
X201178509Y-70598620D01*
X201183617Y-70598620D01*
X201246082Y-70612107D01*
X201249921Y-70613846D01*
X201271558Y-70625870D01*
X201295520Y-70641881D01*
X201324365Y-70647618D01*
X201329950Y-70650372D01*
X201336183Y-70650465D01*
X201361790Y-70660321D01*
X201371055Y-70664890D01*
X201386034Y-70678027D01*
X201394650Y-70682276D01*
X201403464Y-70690655D01*
X201409795Y-70697177D01*
X201411640Y-70700485D01*
X201429975Y-70716566D01*
X201444538Y-70759473D01*
X201447967Y-70765622D01*
X201447910Y-70769410D01*
X201455163Y-70790778D01*
X201446982Y-70831896D01*
X201446803Y-70843984D01*
X201443466Y-70849569D01*
X201439871Y-70867642D01*
X201417289Y-70893392D01*
X201406613Y-70911265D01*
X201396832Y-70916719D01*
X201388208Y-70926554D01*
X201385281Y-70928510D01*
X201348002Y-70943952D01*
X201338168Y-70949437D01*
X201334880Y-70949388D01*
X201330697Y-70951121D01*
X201295521Y-70958117D01*
X201295520Y-70958118D01*
X201228140Y-71003139D01*
X201228138Y-71003141D01*
X201183119Y-71070517D01*
X201183118Y-71070521D01*
X201183118Y-71070522D01*
X201171300Y-71129935D01*
X201171300Y-71470064D01*
X201178414Y-71505830D01*
X201178416Y-71505838D01*
X201181325Y-71535375D01*
X201181325Y-71564623D01*
X201178416Y-71594160D01*
X201178415Y-71594168D01*
X201171300Y-71629934D01*
X201171300Y-71629936D01*
X201171300Y-71970064D01*
X201183119Y-72029480D01*
X201228140Y-72096860D01*
X201295520Y-72141881D01*
X201354936Y-72153700D01*
X201974967Y-72153700D01*
X202014147Y-72158858D01*
X202029764Y-72163042D01*
X202097636Y-72202224D01*
X202136824Y-72270094D01*
X202136826Y-72348464D01*
X202136825Y-72348471D01*
X202133845Y-72359592D01*
X202094660Y-72427461D01*
X201284262Y-73237859D01*
X201252910Y-73261917D01*
X201228495Y-73276014D01*
X201152796Y-73296300D01*
X200875311Y-73296300D01*
X200825984Y-73302793D01*
X200717732Y-73353272D01*
X200633272Y-73437732D01*
X200582793Y-73545984D01*
X200576300Y-73595310D01*
X200576300Y-73944688D01*
X200582793Y-73994014D01*
X200628422Y-74091865D01*
X200633272Y-74102266D01*
X200633273Y-74102267D01*
X200717733Y-74186727D01*
X200825986Y-74237206D01*
X200875312Y-74243700D01*
X201324688Y-74243700D01*
X201374014Y-74237206D01*
X201482267Y-74186727D01*
X201528850Y-74140143D01*
X201560202Y-74116086D01*
X201574300Y-74107946D01*
X201649999Y-74087663D01*
X201725698Y-74107945D01*
X201738043Y-74115073D01*
X201739801Y-74116088D01*
X201771152Y-74140146D01*
X201817733Y-74186727D01*
X201925986Y-74237206D01*
X201975312Y-74243700D01*
X202424688Y-74243700D01*
X202474014Y-74237206D01*
X202582267Y-74186727D01*
X202623850Y-74145143D01*
X202655202Y-74121086D01*
X202663859Y-74116088D01*
X202669300Y-74112946D01*
X202744999Y-74092663D01*
X202820698Y-74112945D01*
X202826141Y-74116088D01*
X202834801Y-74121088D01*
X202866152Y-74145146D01*
X202917733Y-74196727D01*
X203025986Y-74247206D01*
X203075312Y-74253700D01*
X203524685Y-74253700D01*
X203524688Y-74253700D01*
X203530707Y-74252907D01*
X203531389Y-74252820D01*
X203585723Y-74246001D01*
X203586015Y-74247003D01*
X203606412Y-74243405D01*
X203610126Y-74242939D01*
X203645336Y-74247791D01*
X203680749Y-74250887D01*
X203683924Y-74253109D01*
X203687763Y-74253639D01*
X203715833Y-74275450D01*
X203744949Y-74295834D01*
X203746739Y-74299464D01*
X203749648Y-74301724D01*
X203758126Y-74322548D01*
X203776785Y-74360375D01*
X203779207Y-74371294D01*
X203782800Y-74404080D01*
X203782800Y-80778667D01*
X203777639Y-80817859D01*
X203773426Y-80833579D01*
X203734238Y-80901448D01*
X203666379Y-80940626D01*
X203650659Y-80944839D01*
X203611467Y-80950000D01*
X195489833Y-80950000D01*
X195450643Y-80944840D01*
X195434922Y-80940627D01*
X195367052Y-80901439D01*
X195367051Y-80901438D01*
X195327871Y-80833572D01*
X195323657Y-80817848D01*
X195318500Y-80778667D01*
X195318500Y-61571332D01*
X195323657Y-61532152D01*
X195327871Y-61516425D01*
X195367055Y-61448557D01*
X195434922Y-61409372D01*
X195435880Y-61409115D01*
X195450652Y-61405158D01*
X195489833Y-61400000D01*
X205789900Y-61400000D01*
X205865600Y-61420284D01*
G37*
%TD.AperFunction*%
%TA.AperFunction,Conductor*%
G36*
X205567641Y-67960127D02*
G01*
X205626552Y-68011789D01*
X205628511Y-68014720D01*
X205651121Y-68069302D01*
X205652393Y-68075699D01*
X205655888Y-68093266D01*
X205658119Y-68104482D01*
X205703138Y-68171858D01*
X205703139Y-68171858D01*
X205703140Y-68171860D01*
X205770520Y-68216881D01*
X205829936Y-68228700D01*
X205829937Y-68228700D01*
X205837336Y-68229429D01*
X205837232Y-68230485D01*
X205863177Y-68233922D01*
X205864784Y-68234355D01*
X205918901Y-68250246D01*
X205929202Y-68251727D01*
X205938020Y-68254105D01*
X205964280Y-68269322D01*
X205992178Y-68281266D01*
X205997763Y-68288725D01*
X206005828Y-68293399D01*
X206020962Y-68319709D01*
X206039149Y-68344000D01*
X206041274Y-68355022D01*
X206044904Y-68361333D01*
X206044884Y-68373747D01*
X206050000Y-68400283D01*
X206050000Y-71699966D01*
X206044840Y-71739154D01*
X206040650Y-71754790D01*
X206039730Y-71754543D01*
X206023550Y-71785324D01*
X206005567Y-71819831D01*
X206005202Y-71820228D01*
X206005093Y-71820346D01*
X205939396Y-71862011D01*
X205932147Y-71864296D01*
X205886631Y-71871300D01*
X205829935Y-71871300D01*
X205791682Y-71878909D01*
X205759358Y-71881792D01*
X205751746Y-71881651D01*
X205749898Y-71881325D01*
X205734000Y-71881325D01*
X205732588Y-71881299D01*
X205731274Y-71880921D01*
X205705839Y-71878416D01*
X205670065Y-71871300D01*
X205670064Y-71871300D01*
X205329936Y-71871300D01*
X205329935Y-71871300D01*
X205294161Y-71878416D01*
X205264624Y-71881325D01*
X205235376Y-71881325D01*
X205205839Y-71878416D01*
X205170065Y-71871300D01*
X205170064Y-71871300D01*
X204829936Y-71871300D01*
X204829935Y-71871300D01*
X204794161Y-71878416D01*
X204764624Y-71881325D01*
X204735376Y-71881325D01*
X204705839Y-71878416D01*
X204670065Y-71871300D01*
X204670064Y-71871300D01*
X204329936Y-71871300D01*
X204329935Y-71871300D01*
X204294161Y-71878416D01*
X204264624Y-71881325D01*
X204235376Y-71881325D01*
X204205839Y-71878416D01*
X204170065Y-71871300D01*
X204170064Y-71871300D01*
X203829936Y-71871300D01*
X203829935Y-71871300D01*
X203794161Y-71878416D01*
X203764624Y-71881325D01*
X203735376Y-71881325D01*
X203705839Y-71878416D01*
X203670065Y-71871300D01*
X203670064Y-71871300D01*
X203329936Y-71871300D01*
X203329935Y-71871300D01*
X203294161Y-71878416D01*
X203264624Y-71881325D01*
X203235376Y-71881325D01*
X203205839Y-71878416D01*
X203170065Y-71871300D01*
X203170064Y-71871300D01*
X202829936Y-71871300D01*
X202829935Y-71871300D01*
X202829934Y-71871300D01*
X202789660Y-71879311D01*
X202769226Y-71881946D01*
X202753685Y-71882882D01*
X202715048Y-71880247D01*
X202670066Y-71871300D01*
X202670064Y-71871300D01*
X202595667Y-71871300D01*
X202545485Y-71862741D01*
X202534196Y-71858775D01*
X202469498Y-71814547D01*
X202438137Y-71755119D01*
X202433859Y-71739153D01*
X202428700Y-71699968D01*
X202428700Y-71629932D01*
X202421585Y-71594168D01*
X202418675Y-71564627D01*
X202418675Y-71535371D01*
X202421585Y-71505830D01*
X202428700Y-71470066D01*
X202428700Y-71129933D01*
X202419791Y-71085151D01*
X202419056Y-71077691D01*
X202416880Y-71070518D01*
X202371861Y-71003141D01*
X202371858Y-71003138D01*
X202304481Y-70958119D01*
X202304471Y-70958116D01*
X202275627Y-70952379D01*
X202270006Y-70949607D01*
X202263739Y-70949511D01*
X202238196Y-70939672D01*
X202228944Y-70935109D01*
X202213961Y-70921969D01*
X202205339Y-70917717D01*
X202196478Y-70909289D01*
X202190155Y-70902769D01*
X202188326Y-70899486D01*
X202170023Y-70883434D01*
X202155428Y-70840432D01*
X202152015Y-70834306D01*
X202152072Y-70830546D01*
X202144835Y-70809222D01*
X202153031Y-70768021D01*
X202153217Y-70755944D01*
X202156540Y-70750386D01*
X202160127Y-70732358D01*
X202182740Y-70706573D01*
X202193439Y-70688683D01*
X202203199Y-70683245D01*
X202211798Y-70673440D01*
X202214731Y-70671480D01*
X202252100Y-70656003D01*
X202261902Y-70650543D01*
X202265162Y-70650593D01*
X202269305Y-70648877D01*
X202304480Y-70641881D01*
X202371860Y-70596860D01*
X202416881Y-70529480D01*
X202428700Y-70470064D01*
X202428700Y-70129936D01*
X202421584Y-70094162D01*
X202418675Y-70064625D01*
X202418675Y-70035371D01*
X202421585Y-70005830D01*
X202428700Y-69970066D01*
X202428700Y-69629932D01*
X202421585Y-69594168D01*
X202418675Y-69564627D01*
X202418675Y-69535371D01*
X202421585Y-69505830D01*
X202428700Y-69470066D01*
X202428700Y-69129932D01*
X202421585Y-69094169D01*
X202418675Y-69064628D01*
X202418675Y-69035371D01*
X202421585Y-69005830D01*
X202421880Y-69004350D01*
X202425990Y-68983685D01*
X202428700Y-68970066D01*
X202428700Y-68629932D01*
X202420690Y-68589669D01*
X202418055Y-68569245D01*
X202417117Y-68553697D01*
X202419751Y-68515049D01*
X202428700Y-68470064D01*
X202428700Y-68395665D01*
X202437252Y-68345501D01*
X202440280Y-68336881D01*
X202440283Y-68336868D01*
X202441217Y-68334210D01*
X202485439Y-68269508D01*
X202544882Y-68238136D01*
X202547618Y-68237402D01*
X202547623Y-68237402D01*
X202560850Y-68233857D01*
X202600031Y-68228700D01*
X202670065Y-68228700D01*
X202692211Y-68224294D01*
X202705846Y-68221581D01*
X202735371Y-68218675D01*
X202764629Y-68218675D01*
X202794138Y-68221579D01*
X202797651Y-68222277D01*
X202799130Y-68222571D01*
X202799160Y-68222585D01*
X202799162Y-68222578D01*
X202829934Y-68228700D01*
X202829936Y-68228700D01*
X203170065Y-68228700D01*
X203192211Y-68224294D01*
X203205846Y-68221581D01*
X203235371Y-68218675D01*
X203264629Y-68218675D01*
X203294138Y-68221579D01*
X203297651Y-68222277D01*
X203299130Y-68222571D01*
X203299160Y-68222585D01*
X203299162Y-68222578D01*
X203329934Y-68228700D01*
X203329936Y-68228700D01*
X203670065Y-68228700D01*
X203692211Y-68224294D01*
X203705846Y-68221581D01*
X203735371Y-68218675D01*
X203764629Y-68218675D01*
X203794138Y-68221579D01*
X203797651Y-68222277D01*
X203799130Y-68222571D01*
X203799160Y-68222585D01*
X203799162Y-68222578D01*
X203829934Y-68228700D01*
X203829936Y-68228700D01*
X204170065Y-68228700D01*
X204192211Y-68224294D01*
X204205846Y-68221581D01*
X204235371Y-68218675D01*
X204264629Y-68218675D01*
X204294138Y-68221579D01*
X204297651Y-68222277D01*
X204299130Y-68222571D01*
X204299160Y-68222585D01*
X204299162Y-68222578D01*
X204329934Y-68228700D01*
X204329936Y-68228700D01*
X204670065Y-68228700D01*
X204692211Y-68224294D01*
X204705846Y-68221581D01*
X204735371Y-68218675D01*
X204764629Y-68218675D01*
X204794138Y-68221579D01*
X204797651Y-68222277D01*
X204799130Y-68222571D01*
X204799160Y-68222585D01*
X204799162Y-68222578D01*
X204829934Y-68228700D01*
X204829936Y-68228700D01*
X205170064Y-68228700D01*
X205229480Y-68216881D01*
X205296860Y-68171860D01*
X205341881Y-68104480D01*
X205347620Y-68075625D01*
X205360324Y-68038202D01*
X205364891Y-68028942D01*
X205416565Y-67970023D01*
X205490777Y-67944835D01*
X205567641Y-67960127D01*
G37*
%TD.AperFunction*%
%TD*%
M02*
