%TF.GenerationSoftware,KiCad,Pcbnew,10.0.3*%
%TF.CreationDate,2026-06-25T13:59:42-05:00*%
%TF.ProjectId,TPS546C23 Board,54505335-3436-4433-9233-20426f617264,rev?*%
%TF.SameCoordinates,Original*%
%TF.FileFunction,Plated,1,2,PTH,Drill*%
%TF.FilePolarity,Positive*%
%FSLAX46Y46*%
G04 Gerber Fmt 4.6, Leading zero omitted, Abs format (unit mm)*
G04 Created by KiCad (PCBNEW 10.0.3) date 2026-06-25 13:59:42*
%MOMM*%
%LPD*%
G01*
G04 APERTURE LIST*
%TA.AperFunction,ViaDrill*%
%ADD10C,0.254000*%
%TD*%
%TA.AperFunction,ComponentDrill*%
%ADD11C,1.000000*%
%TD*%
%TA.AperFunction,ComponentDrill*%
%ADD12C,1.600000*%
%TD*%
G04 APERTURE END LIST*
D10*
X195580000Y-62230000D03*
X195580000Y-64770000D03*
X195580000Y-72390000D03*
X195580000Y-74295000D03*
X195580000Y-76200000D03*
X195580000Y-78105000D03*
X195580000Y-80010000D03*
X198120000Y-62230000D03*
X198120000Y-64770000D03*
X198120000Y-72390000D03*
X198120000Y-74295000D03*
X198120000Y-76200000D03*
X198120000Y-78105000D03*
X198120000Y-80010000D03*
X200406000Y-64770000D03*
X200660000Y-76200000D03*
X200660000Y-78105000D03*
X200660000Y-80010000D03*
X200700000Y-68072000D03*
X200700000Y-68800000D03*
X202550000Y-64389000D03*
X202602600Y-66332600D03*
X202946000Y-68834000D03*
X202946000Y-69596000D03*
X202946000Y-70358000D03*
X202946000Y-71120000D03*
X203200000Y-76200000D03*
X203200000Y-78105000D03*
X203200000Y-80010000D03*
X203450000Y-64389000D03*
X203708000Y-68834000D03*
X203708000Y-69596000D03*
X203708000Y-70358000D03*
X203708000Y-71120000D03*
X204470000Y-68834000D03*
X204470000Y-69596000D03*
X204470000Y-70358000D03*
X204470000Y-71120000D03*
X204500000Y-64389000D03*
X205232000Y-68834000D03*
X205232000Y-69596000D03*
X205232000Y-70358000D03*
X205232000Y-71120000D03*
X205600000Y-64389000D03*
X205994000Y-68834000D03*
X205994000Y-69596000D03*
X205994000Y-70358000D03*
X205994000Y-71120000D03*
X206756000Y-66319400D03*
X206756000Y-68834000D03*
X206756000Y-69596000D03*
X206756000Y-70358000D03*
X206756000Y-71120000D03*
X207518000Y-68834000D03*
X207518000Y-69596000D03*
X207518000Y-70358000D03*
X207518000Y-71120000D03*
X210820000Y-63500000D03*
X210820000Y-66040000D03*
X210820000Y-71120000D03*
X213360000Y-63500000D03*
X213360000Y-66040000D03*
X213360000Y-71120000D03*
X215900000Y-63500000D03*
X215900000Y-66040000D03*
X215900000Y-71120000D03*
X218440000Y-50800000D03*
X218440000Y-55880000D03*
X218440000Y-60960000D03*
X218440000Y-63500000D03*
X218440000Y-66040000D03*
X218440000Y-71120000D03*
X220980000Y-63500000D03*
X220980000Y-66040000D03*
X220980000Y-71120000D03*
X222250000Y-83820000D03*
X222250000Y-86360000D03*
X222250000Y-88900000D03*
X223520000Y-50800000D03*
X223520000Y-55880000D03*
X223520000Y-60960000D03*
X223520000Y-63500000D03*
X223520000Y-66040000D03*
X223520000Y-71120000D03*
X224790000Y-83820000D03*
X224790000Y-86360000D03*
X224790000Y-88900000D03*
X226060000Y-71120000D03*
X227330000Y-83820000D03*
X227330000Y-86360000D03*
X227330000Y-88900000D03*
X228600000Y-40640000D03*
X228600000Y-45720000D03*
X228600000Y-50800000D03*
X228600000Y-55880000D03*
X228600000Y-60960000D03*
X228600000Y-66040000D03*
X228600000Y-71120000D03*
X229870000Y-83820000D03*
X229870000Y-86360000D03*
X229870000Y-88900000D03*
X231140000Y-71120000D03*
X232410000Y-83820000D03*
X232410000Y-86360000D03*
X232410000Y-88900000D03*
X233680000Y-40640000D03*
X233680000Y-45720000D03*
X233680000Y-50800000D03*
X233680000Y-55880000D03*
X233680000Y-60960000D03*
X233680000Y-66040000D03*
X233680000Y-71120000D03*
X234950000Y-83820000D03*
X234950000Y-86360000D03*
X234950000Y-88900000D03*
X236220000Y-71120000D03*
X237490000Y-81280000D03*
X237490000Y-83820000D03*
X237490000Y-86360000D03*
X237490000Y-88900000D03*
X238760000Y-40640000D03*
X238760000Y-45720000D03*
X238760000Y-50800000D03*
X238760000Y-55880000D03*
X238760000Y-60960000D03*
X238760000Y-66040000D03*
X238760000Y-71120000D03*
X238760000Y-73660000D03*
X240030000Y-78740000D03*
X240030000Y-81280000D03*
X240030000Y-83820000D03*
X240030000Y-86360000D03*
X240030000Y-88900000D03*
X241300000Y-71120000D03*
X241300000Y-73660000D03*
X242570000Y-78740000D03*
X242570000Y-81280000D03*
X242570000Y-83820000D03*
X242570000Y-86360000D03*
X242570000Y-88900000D03*
X243840000Y-40640000D03*
X243840000Y-45720000D03*
X243840000Y-50800000D03*
X243840000Y-55880000D03*
X243840000Y-60960000D03*
X243840000Y-66040000D03*
X243840000Y-73660000D03*
X245110000Y-78740000D03*
X245110000Y-81280000D03*
X245110000Y-83820000D03*
X245110000Y-86360000D03*
X245110000Y-88900000D03*
X247650000Y-78740000D03*
X248920000Y-40640000D03*
X248920000Y-45720000D03*
X248920000Y-50800000D03*
X248920000Y-55880000D03*
X248920000Y-60960000D03*
X250190000Y-78740000D03*
X251350000Y-76750000D03*
X253150000Y-76750000D03*
D11*
%TO.C,J7*%
X201935000Y-88265000D03*
X204475000Y-88265000D03*
D12*
%TO.C,J1*%
X202565000Y-39370000D03*
X202565000Y-44450000D03*
X207645000Y-39370000D03*
X207645000Y-44450000D03*
%TO.C,J2*%
X220980000Y-39370000D03*
X220980000Y-44450000D03*
X226060000Y-39370000D03*
X226060000Y-44450000D03*
%TO.C,J3*%
X247015000Y-64770000D03*
X247015000Y-69850000D03*
%TO.C,J4*%
X247015000Y-81915000D03*
X247015000Y-86995000D03*
%TO.C,J3*%
X252095000Y-64770000D03*
X252095000Y-69850000D03*
%TO.C,J4*%
X252095000Y-81915000D03*
X252095000Y-86995000D03*
M02*
