%TF.GenerationSoftware,KiCad,Pcbnew,10.0.3*%
%TF.CreationDate,2026-06-25T14:00:00-05:00*%
%TF.ProjectId,TPS546C23 Board,54505335-3436-4433-9233-20426f617264,rev?*%
%TF.SameCoordinates,Original*%
%TF.FileFunction,Soldermask,Top*%
%TF.FilePolarity,Negative*%
%FSLAX46Y46*%
G04 Gerber Fmt 4.6, Leading zero omitted, Abs format (unit mm)*
G04 Created by KiCad (PCBNEW 10.0.3) date 2026-06-25 14:00:00*
%MOMM*%
%LPD*%
G01*
G04 APERTURE LIST*
G04 Aperture macros list*
%AMRoundRect*
0 Rectangle with rounded corners*
0 $1 Rounding radius*
0 $2 $3 $4 $5 $6 $7 $8 $9 X,Y pos of 4 corners*
0 Add a 4 corners polygon primitive as box body*
4,1,4,$2,$3,$4,$5,$6,$7,$8,$9,$2,$3,0*
0 Add four circle primitives for the rounded corners*
1,1,$1+$1,$2,$3*
1,1,$1+$1,$4,$5*
1,1,$1+$1,$6,$7*
1,1,$1+$1,$8,$9*
0 Add four rect primitives between the rounded corners*
20,1,$1+$1,$2,$3,$4,$5,0*
20,1,$1+$1,$4,$5,$6,$7,0*
20,1,$1+$1,$6,$7,$8,$9,0*
20,1,$1+$1,$8,$9,$2,$3,0*%
G04 Aperture macros list end*
%ADD10RoundRect,0.140000X-0.140000X-0.170000X0.140000X-0.170000X0.140000X0.170000X-0.140000X0.170000X0*%
%ADD11C,2.600000*%
%ADD12RoundRect,0.250000X0.475000X-0.250000X0.475000X0.250000X-0.475000X0.250000X-0.475000X-0.250000X0*%
%ADD13RoundRect,0.140000X0.140000X0.170000X-0.140000X0.170000X-0.140000X-0.170000X0.140000X-0.170000X0*%
%ADD14RoundRect,0.135000X-0.135000X-0.185000X0.135000X-0.185000X0.135000X0.185000X-0.135000X0.185000X0*%
%ADD15RoundRect,0.140000X-0.170000X0.140000X-0.170000X-0.140000X0.170000X-0.140000X0.170000X0.140000X0*%
%ADD16R,1.700000X1.700000*%
%ADD17C,1.700000*%
%ADD18RoundRect,0.250000X0.550000X-1.500000X0.550000X1.500000X-0.550000X1.500000X-0.550000X-1.500000X0*%
%ADD19RoundRect,0.135000X-0.185000X0.135000X-0.185000X-0.135000X0.185000X-0.135000X0.185000X0.135000X0*%
%ADD20RoundRect,0.250000X-1.500000X-0.550000X1.500000X-0.550000X1.500000X0.550000X-1.500000X0.550000X0*%
%ADD21RoundRect,0.250000X1.375000X2.500000X-1.375000X2.500000X-1.375000X-2.500000X1.375000X-2.500000X0*%
%ADD22RoundRect,0.140000X0.170000X-0.140000X0.170000X0.140000X-0.170000X0.140000X-0.170000X-0.140000X0*%
%ADD23RoundRect,0.135000X0.185000X-0.135000X0.185000X0.135000X-0.185000X0.135000X-0.185000X-0.135000X0*%
%ADD24R,0.300000X0.850000*%
%ADD25R,0.850000X0.300000*%
%ADD26R,5.400000X3.400000*%
%ADD27RoundRect,0.135000X0.135000X0.185000X-0.135000X0.185000X-0.135000X-0.185000X0.135000X-0.185000X0*%
G04 APERTURE END LIST*
D10*
%TO.C,C_decp2*%
X208120000Y-64250000D03*
X209080000Y-64250000D03*
%TD*%
D11*
%TO.C,J3*%
X252095000Y-69850000D03*
X252095000Y-64770000D03*
X247015000Y-69850000D03*
X247015000Y-64770000D03*
%TD*%
D10*
%TO.C,CL1*%
X210120000Y-72850000D03*
X211080000Y-72850000D03*
%TD*%
D12*
%TO.C,C4*%
X240655000Y-77245000D03*
X240655000Y-75345000D03*
%TD*%
D13*
%TO.C,Ccomp2*%
X199330000Y-70750000D03*
X198370000Y-70750000D03*
%TD*%
D14*
%TO.C,Rdifo3*%
X198690000Y-66250000D03*
X199710000Y-66250000D03*
%TD*%
D15*
%TO.C,C_bp6-2*%
X203581000Y-65350000D03*
X203581000Y-66310000D03*
%TD*%
D16*
%TO.C,J7*%
X204475000Y-88265000D03*
D17*
X201935000Y-88265000D03*
%TD*%
D15*
%TO.C,C_bp6*%
X204550000Y-65340000D03*
X204550000Y-66300000D03*
%TD*%
D18*
%TO.C,C8*%
X234500000Y-79700000D03*
X234500000Y-74300000D03*
%TD*%
D14*
%TO.C,Rsn1*%
X251240000Y-74550000D03*
X252260000Y-74550000D03*
%TD*%
D15*
%TO.C,C_bp3*%
X205600000Y-65350000D03*
X205600000Y-66310000D03*
%TD*%
D19*
%TO.C,r_ad1*%
X203300000Y-73780000D03*
X203300000Y-74800000D03*
%TD*%
D18*
%TO.C,C7*%
X226350000Y-79700000D03*
X226350000Y-74300000D03*
%TD*%
D10*
%TO.C,C_boot1*%
X205320000Y-73850000D03*
X206280000Y-73850000D03*
%TD*%
D15*
%TO.C,Crsn1*%
X252250000Y-75790000D03*
X252250000Y-76750000D03*
%TD*%
D12*
%TO.C,C5*%
X243650000Y-77250000D03*
X243650000Y-75350000D03*
%TD*%
D10*
%TO.C,C_decp3*%
X208120000Y-65300000D03*
X209080000Y-65300000D03*
%TD*%
D14*
%TO.C,Rsp1*%
X251230000Y-77950000D03*
X252250000Y-77950000D03*
%TD*%
%TO.C,Rdifo2*%
X198290000Y-67350000D03*
X199310000Y-67350000D03*
%TD*%
D19*
%TO.C,R_rt1*%
X201100000Y-73770000D03*
X201100000Y-74790000D03*
%TD*%
D12*
%TO.C,C6*%
X246550000Y-77250000D03*
X246550000Y-75350000D03*
%TD*%
D20*
%TO.C,C10*%
X206495000Y-50565000D03*
X211895000Y-50565000D03*
%TD*%
D21*
%TO.C,L1*%
X219675000Y-80200000D03*
X208425000Y-80200000D03*
%TD*%
D14*
%TO.C,RL1*%
X212530000Y-72850000D03*
X213550000Y-72850000D03*
%TD*%
D11*
%TO.C,J4*%
X252095000Y-86995000D03*
X252095000Y-81915000D03*
X247015000Y-86995000D03*
X247015000Y-81915000D03*
%TD*%
D10*
%TO.C,C_decp4*%
X208120000Y-66400000D03*
X209080000Y-66400000D03*
%TD*%
D22*
%TO.C,Ccomp1*%
X200350000Y-70780000D03*
X200350000Y-69820000D03*
%TD*%
D11*
%TO.C,J1*%
X207645000Y-39370000D03*
X202565000Y-39370000D03*
X207645000Y-44450000D03*
X202565000Y-44450000D03*
%TD*%
D10*
%TO.C,Cdifo1*%
X198300000Y-68500000D03*
X199260000Y-68500000D03*
%TD*%
D11*
%TO.C,J2*%
X226060000Y-39370000D03*
X220980000Y-39370000D03*
X226060000Y-44450000D03*
X220980000Y-44450000D03*
%TD*%
D20*
%TO.C,C11*%
X206495000Y-58715000D03*
X211895000Y-58715000D03*
%TD*%
D10*
%TO.C,C_decp1*%
X208150000Y-63200000D03*
X209110000Y-63200000D03*
%TD*%
D23*
%TO.C,Rdifo1*%
X197150000Y-68510000D03*
X197150000Y-67490000D03*
%TD*%
D24*
%TO.C,IC1*%
X202500000Y-72500000D03*
X203000000Y-72500000D03*
X203500000Y-72500000D03*
X204000000Y-72500000D03*
X204500000Y-72500000D03*
X205000000Y-72500000D03*
X205500000Y-72500000D03*
X206000000Y-72500000D03*
X206500000Y-72500000D03*
X207000000Y-72500000D03*
X207500000Y-72500000D03*
X208000000Y-72500000D03*
D25*
X208700000Y-71800000D03*
X208700000Y-71300000D03*
X208700000Y-70800000D03*
X208700000Y-70300000D03*
X208700000Y-69800000D03*
X208700000Y-69300000D03*
X208700000Y-68800000D03*
X208700000Y-68300000D03*
D24*
X208000000Y-67600000D03*
X207500000Y-67600000D03*
X207000000Y-67600000D03*
X206500000Y-67600000D03*
X206000000Y-67600000D03*
X205500000Y-67600000D03*
X205000000Y-67600000D03*
X204500000Y-67600000D03*
X204000000Y-67600000D03*
X203500000Y-67600000D03*
X203000000Y-67600000D03*
X202500000Y-67600000D03*
D25*
X201800000Y-68300000D03*
X201800000Y-68800000D03*
X201800000Y-69300000D03*
X201800000Y-69800000D03*
X201800000Y-70300000D03*
X201800000Y-70800000D03*
X201800000Y-71300000D03*
X201800000Y-71800000D03*
D26*
X205250000Y-70050000D03*
%TD*%
D27*
%TO.C,Rcomp1*%
X199310000Y-69600000D03*
X198290000Y-69600000D03*
%TD*%
D19*
%TO.C,r_ad2*%
X202200000Y-73770000D03*
X202200000Y-74790000D03*
%TD*%
D23*
%TO.C,R_bp3*%
X201600000Y-66350000D03*
X201600000Y-65330000D03*
%TD*%
D12*
%TO.C,C9*%
X249500000Y-77250000D03*
X249500000Y-75350000D03*
%TD*%
D15*
%TO.C,C_avin1*%
X202600000Y-65370000D03*
X202600000Y-66330000D03*
%TD*%
M02*
