%TF.GenerationSoftware,KiCad,Pcbnew,10.0.3*%
%TF.CreationDate,2026-06-25T14:00:00-05:00*%
%TF.ProjectId,TPS546C23 Board,54505335-3436-4433-9233-20426f617264,rev?*%
%TF.SameCoordinates,Original*%
%TF.FileFunction,Legend,Top*%
%TF.FilePolarity,Positive*%
%FSLAX46Y46*%
G04 Gerber Fmt 4.6, Leading zero omitted, Abs format (unit mm)*
G04 Created by KiCad (PCBNEW 10.0.3) date 2026-06-25 14:00:00*
%MOMM*%
%LPD*%
G01*
G04 APERTURE LIST*
%ADD10C,0.101600*%
%ADD11C,0.127000*%
%ADD12C,0.100000*%
%ADD13C,0.150000*%
%ADD14C,0.254000*%
%ADD15C,0.120000*%
%ADD16C,0.250000*%
G04 APERTURE END LIST*
D10*
X201209442Y-90833461D02*
X201209442Y-90071461D01*
X201209442Y-90797176D02*
X201136870Y-90833461D01*
X201136870Y-90833461D02*
X200991727Y-90833461D01*
X200991727Y-90833461D02*
X200919156Y-90797176D01*
X200919156Y-90797176D02*
X200882870Y-90760890D01*
X200882870Y-90760890D02*
X200846584Y-90688318D01*
X200846584Y-90688318D02*
X200846584Y-90470604D01*
X200846584Y-90470604D02*
X200882870Y-90398033D01*
X200882870Y-90398033D02*
X200919156Y-90361747D01*
X200919156Y-90361747D02*
X200991727Y-90325461D01*
X200991727Y-90325461D02*
X201136870Y-90325461D01*
X201136870Y-90325461D02*
X201209442Y-90361747D01*
X201898871Y-90833461D02*
X201898871Y-90434318D01*
X201898871Y-90434318D02*
X201862585Y-90361747D01*
X201862585Y-90361747D02*
X201790013Y-90325461D01*
X201790013Y-90325461D02*
X201644871Y-90325461D01*
X201644871Y-90325461D02*
X201572299Y-90361747D01*
X201898871Y-90797176D02*
X201826299Y-90833461D01*
X201826299Y-90833461D02*
X201644871Y-90833461D01*
X201644871Y-90833461D02*
X201572299Y-90797176D01*
X201572299Y-90797176D02*
X201536013Y-90724604D01*
X201536013Y-90724604D02*
X201536013Y-90652033D01*
X201536013Y-90652033D02*
X201572299Y-90579461D01*
X201572299Y-90579461D02*
X201644871Y-90543176D01*
X201644871Y-90543176D02*
X201826299Y-90543176D01*
X201826299Y-90543176D02*
X201898871Y-90506890D01*
X202152871Y-90325461D02*
X202443157Y-90325461D01*
X202261728Y-90071461D02*
X202261728Y-90724604D01*
X202261728Y-90724604D02*
X202298014Y-90797176D01*
X202298014Y-90797176D02*
X202370585Y-90833461D01*
X202370585Y-90833461D02*
X202443157Y-90833461D01*
X203023729Y-90833461D02*
X203023729Y-90434318D01*
X203023729Y-90434318D02*
X202987443Y-90361747D01*
X202987443Y-90361747D02*
X202914871Y-90325461D01*
X202914871Y-90325461D02*
X202769729Y-90325461D01*
X202769729Y-90325461D02*
X202697157Y-90361747D01*
X203023729Y-90797176D02*
X202951157Y-90833461D01*
X202951157Y-90833461D02*
X202769729Y-90833461D01*
X202769729Y-90833461D02*
X202697157Y-90797176D01*
X202697157Y-90797176D02*
X202660871Y-90724604D01*
X202660871Y-90724604D02*
X202660871Y-90652033D01*
X202660871Y-90652033D02*
X202697157Y-90579461D01*
X202697157Y-90579461D02*
X202769729Y-90543176D01*
X202769729Y-90543176D02*
X202951157Y-90543176D01*
X202951157Y-90543176D02*
X203023729Y-90506890D01*
X204232042Y-90797176D02*
X204159470Y-90833461D01*
X204159470Y-90833461D02*
X204014327Y-90833461D01*
X204014327Y-90833461D02*
X203941756Y-90797176D01*
X203941756Y-90797176D02*
X203905470Y-90760890D01*
X203905470Y-90760890D02*
X203869184Y-90688318D01*
X203869184Y-90688318D02*
X203869184Y-90470604D01*
X203869184Y-90470604D02*
X203905470Y-90398033D01*
X203905470Y-90398033D02*
X203941756Y-90361747D01*
X203941756Y-90361747D02*
X204014327Y-90325461D01*
X204014327Y-90325461D02*
X204159470Y-90325461D01*
X204159470Y-90325461D02*
X204232042Y-90361747D01*
X204667470Y-90833461D02*
X204594899Y-90797176D01*
X204594899Y-90797176D02*
X204558613Y-90724604D01*
X204558613Y-90724604D02*
X204558613Y-90071461D01*
X204957756Y-90833461D02*
X204957756Y-90071461D01*
X205030328Y-90543176D02*
X205248042Y-90833461D01*
X205248042Y-90325461D02*
X204957756Y-90615747D01*
D11*
X196776313Y-41017056D02*
X197114980Y-42033056D01*
X197114980Y-42033056D02*
X197453647Y-41017056D01*
X197550409Y-42129818D02*
X198324504Y-42129818D01*
X198566408Y-42033056D02*
X198566408Y-41017056D01*
X199050218Y-42033056D02*
X199050218Y-41017056D01*
X199050218Y-41017056D02*
X199630790Y-42033056D01*
X199630790Y-42033056D02*
X199630790Y-41017056D01*
X230473647Y-41573437D02*
X230376885Y-41525056D01*
X230376885Y-41525056D02*
X230231742Y-41525056D01*
X230231742Y-41525056D02*
X230086599Y-41573437D01*
X230086599Y-41573437D02*
X229989837Y-41670199D01*
X229989837Y-41670199D02*
X229941456Y-41766961D01*
X229941456Y-41766961D02*
X229893075Y-41960485D01*
X229893075Y-41960485D02*
X229893075Y-42105628D01*
X229893075Y-42105628D02*
X229941456Y-42299152D01*
X229941456Y-42299152D02*
X229989837Y-42395914D01*
X229989837Y-42395914D02*
X230086599Y-42492676D01*
X230086599Y-42492676D02*
X230231742Y-42541056D01*
X230231742Y-42541056D02*
X230328504Y-42541056D01*
X230328504Y-42541056D02*
X230473647Y-42492676D01*
X230473647Y-42492676D02*
X230522028Y-42444295D01*
X230522028Y-42444295D02*
X230522028Y-42105628D01*
X230522028Y-42105628D02*
X230328504Y-42105628D01*
X230957456Y-42541056D02*
X230957456Y-41525056D01*
X230957456Y-41525056D02*
X231538028Y-42541056D01*
X231538028Y-42541056D02*
X231538028Y-41525056D01*
X232021837Y-42541056D02*
X232021837Y-41525056D01*
X232021837Y-41525056D02*
X232263742Y-41525056D01*
X232263742Y-41525056D02*
X232408885Y-41573437D01*
X232408885Y-41573437D02*
X232505647Y-41670199D01*
X232505647Y-41670199D02*
X232554028Y-41766961D01*
X232554028Y-41766961D02*
X232602409Y-41960485D01*
X232602409Y-41960485D02*
X232602409Y-42105628D01*
X232602409Y-42105628D02*
X232554028Y-42299152D01*
X232554028Y-42299152D02*
X232505647Y-42395914D01*
X232505647Y-42395914D02*
X232408885Y-42492676D01*
X232408885Y-42492676D02*
X232263742Y-42541056D01*
X232263742Y-42541056D02*
X232021837Y-42541056D01*
X246814313Y-89785056D02*
X247152980Y-90801056D01*
X247152980Y-90801056D02*
X247491647Y-89785056D01*
X247588409Y-90897818D02*
X248362504Y-90897818D01*
X248797932Y-89785056D02*
X248991456Y-89785056D01*
X248991456Y-89785056D02*
X249088218Y-89833437D01*
X249088218Y-89833437D02*
X249184980Y-89930199D01*
X249184980Y-89930199D02*
X249233361Y-90123723D01*
X249233361Y-90123723D02*
X249233361Y-90462390D01*
X249233361Y-90462390D02*
X249184980Y-90655914D01*
X249184980Y-90655914D02*
X249088218Y-90752676D01*
X249088218Y-90752676D02*
X248991456Y-90801056D01*
X248991456Y-90801056D02*
X248797932Y-90801056D01*
X248797932Y-90801056D02*
X248701170Y-90752676D01*
X248701170Y-90752676D02*
X248604408Y-90655914D01*
X248604408Y-90655914D02*
X248556027Y-90462390D01*
X248556027Y-90462390D02*
X248556027Y-90123723D01*
X248556027Y-90123723D02*
X248604408Y-89930199D01*
X248604408Y-89930199D02*
X248701170Y-89833437D01*
X248701170Y-89833437D02*
X248797932Y-89785056D01*
X249668789Y-89785056D02*
X249668789Y-90607533D01*
X249668789Y-90607533D02*
X249717170Y-90704295D01*
X249717170Y-90704295D02*
X249765551Y-90752676D01*
X249765551Y-90752676D02*
X249862313Y-90801056D01*
X249862313Y-90801056D02*
X250055837Y-90801056D01*
X250055837Y-90801056D02*
X250152599Y-90752676D01*
X250152599Y-90752676D02*
X250200980Y-90704295D01*
X250200980Y-90704295D02*
X250249361Y-90607533D01*
X250249361Y-90607533D02*
X250249361Y-89785056D01*
X250588027Y-89785056D02*
X251168599Y-89785056D01*
X250878313Y-90801056D02*
X250878313Y-89785056D01*
X249015647Y-61385437D02*
X248918885Y-61337056D01*
X248918885Y-61337056D02*
X248773742Y-61337056D01*
X248773742Y-61337056D02*
X248628599Y-61385437D01*
X248628599Y-61385437D02*
X248531837Y-61482199D01*
X248531837Y-61482199D02*
X248483456Y-61578961D01*
X248483456Y-61578961D02*
X248435075Y-61772485D01*
X248435075Y-61772485D02*
X248435075Y-61917628D01*
X248435075Y-61917628D02*
X248483456Y-62111152D01*
X248483456Y-62111152D02*
X248531837Y-62207914D01*
X248531837Y-62207914D02*
X248628599Y-62304676D01*
X248628599Y-62304676D02*
X248773742Y-62353056D01*
X248773742Y-62353056D02*
X248870504Y-62353056D01*
X248870504Y-62353056D02*
X249015647Y-62304676D01*
X249015647Y-62304676D02*
X249064028Y-62256295D01*
X249064028Y-62256295D02*
X249064028Y-61917628D01*
X249064028Y-61917628D02*
X248870504Y-61917628D01*
X249499456Y-62353056D02*
X249499456Y-61337056D01*
X249499456Y-61337056D02*
X250080028Y-62353056D01*
X250080028Y-62353056D02*
X250080028Y-61337056D01*
X250563837Y-62353056D02*
X250563837Y-61337056D01*
X250563837Y-61337056D02*
X250805742Y-61337056D01*
X250805742Y-61337056D02*
X250950885Y-61385437D01*
X250950885Y-61385437D02*
X251047647Y-61482199D01*
X251047647Y-61482199D02*
X251096028Y-61578961D01*
X251096028Y-61578961D02*
X251144409Y-61772485D01*
X251144409Y-61772485D02*
X251144409Y-61917628D01*
X251144409Y-61917628D02*
X251096028Y-62111152D01*
X251096028Y-62111152D02*
X251047647Y-62207914D01*
X251047647Y-62207914D02*
X250950885Y-62304676D01*
X250950885Y-62304676D02*
X250805742Y-62353056D01*
X250805742Y-62353056D02*
X250563837Y-62353056D01*
D12*
X210243714Y-64466028D02*
X210215142Y-64494600D01*
X210215142Y-64494600D02*
X210129428Y-64523171D01*
X210129428Y-64523171D02*
X210072285Y-64523171D01*
X210072285Y-64523171D02*
X209986571Y-64494600D01*
X209986571Y-64494600D02*
X209929428Y-64437457D01*
X209929428Y-64437457D02*
X209900857Y-64380314D01*
X209900857Y-64380314D02*
X209872285Y-64266028D01*
X209872285Y-64266028D02*
X209872285Y-64180314D01*
X209872285Y-64180314D02*
X209900857Y-64066028D01*
X209900857Y-64066028D02*
X209929428Y-64008885D01*
X209929428Y-64008885D02*
X209986571Y-63951742D01*
X209986571Y-63951742D02*
X210072285Y-63923171D01*
X210072285Y-63923171D02*
X210129428Y-63923171D01*
X210129428Y-63923171D02*
X210215142Y-63951742D01*
X210215142Y-63951742D02*
X210243714Y-63980314D01*
X209862856Y-72122371D02*
X209519999Y-72122371D01*
X209691428Y-72122371D02*
X209691428Y-71522371D01*
X209691428Y-71522371D02*
X209634285Y-71608085D01*
X209634285Y-71608085D02*
X209577142Y-71665228D01*
X209577142Y-71665228D02*
X209519999Y-71693800D01*
X210234285Y-71522371D02*
X210291428Y-71522371D01*
X210291428Y-71522371D02*
X210348571Y-71550942D01*
X210348571Y-71550942D02*
X210377143Y-71579514D01*
X210377143Y-71579514D02*
X210405714Y-71636657D01*
X210405714Y-71636657D02*
X210434285Y-71750942D01*
X210434285Y-71750942D02*
X210434285Y-71893800D01*
X210434285Y-71893800D02*
X210405714Y-72008085D01*
X210405714Y-72008085D02*
X210377143Y-72065228D01*
X210377143Y-72065228D02*
X210348571Y-72093800D01*
X210348571Y-72093800D02*
X210291428Y-72122371D01*
X210291428Y-72122371D02*
X210234285Y-72122371D01*
X210234285Y-72122371D02*
X210177143Y-72093800D01*
X210177143Y-72093800D02*
X210148571Y-72065228D01*
X210148571Y-72065228D02*
X210120000Y-72008085D01*
X210120000Y-72008085D02*
X210091428Y-71893800D01*
X210091428Y-71893800D02*
X210091428Y-71750942D01*
X210091428Y-71750942D02*
X210120000Y-71636657D01*
X210120000Y-71636657D02*
X210148571Y-71579514D01*
X210148571Y-71579514D02*
X210177143Y-71550942D01*
X210177143Y-71550942D02*
X210234285Y-71522371D01*
X210805714Y-71522371D02*
X210862857Y-71522371D01*
X210862857Y-71522371D02*
X210920000Y-71550942D01*
X210920000Y-71550942D02*
X210948572Y-71579514D01*
X210948572Y-71579514D02*
X210977143Y-71636657D01*
X210977143Y-71636657D02*
X211005714Y-71750942D01*
X211005714Y-71750942D02*
X211005714Y-71893800D01*
X211005714Y-71893800D02*
X210977143Y-72008085D01*
X210977143Y-72008085D02*
X210948572Y-72065228D01*
X210948572Y-72065228D02*
X210920000Y-72093800D01*
X210920000Y-72093800D02*
X210862857Y-72122371D01*
X210862857Y-72122371D02*
X210805714Y-72122371D01*
X210805714Y-72122371D02*
X210748572Y-72093800D01*
X210748572Y-72093800D02*
X210720000Y-72065228D01*
X210720000Y-72065228D02*
X210691429Y-72008085D01*
X210691429Y-72008085D02*
X210662857Y-71893800D01*
X210662857Y-71893800D02*
X210662857Y-71750942D01*
X210662857Y-71750942D02*
X210691429Y-71636657D01*
X210691429Y-71636657D02*
X210720000Y-71579514D01*
X210720000Y-71579514D02*
X210748572Y-71550942D01*
X210748572Y-71550942D02*
X210805714Y-71522371D01*
X211377143Y-71522371D02*
X211434286Y-71522371D01*
X211434286Y-71522371D02*
X211491429Y-71550942D01*
X211491429Y-71550942D02*
X211520001Y-71579514D01*
X211520001Y-71579514D02*
X211548572Y-71636657D01*
X211548572Y-71636657D02*
X211577143Y-71750942D01*
X211577143Y-71750942D02*
X211577143Y-71893800D01*
X211577143Y-71893800D02*
X211548572Y-72008085D01*
X211548572Y-72008085D02*
X211520001Y-72065228D01*
X211520001Y-72065228D02*
X211491429Y-72093800D01*
X211491429Y-72093800D02*
X211434286Y-72122371D01*
X211434286Y-72122371D02*
X211377143Y-72122371D01*
X211377143Y-72122371D02*
X211320001Y-72093800D01*
X211320001Y-72093800D02*
X211291429Y-72065228D01*
X211291429Y-72065228D02*
X211262858Y-72008085D01*
X211262858Y-72008085D02*
X211234286Y-71893800D01*
X211234286Y-71893800D02*
X211234286Y-71750942D01*
X211234286Y-71750942D02*
X211262858Y-71636657D01*
X211262858Y-71636657D02*
X211291429Y-71579514D01*
X211291429Y-71579514D02*
X211320001Y-71550942D01*
X211320001Y-71550942D02*
X211377143Y-71522371D01*
X211834287Y-71722371D02*
X211834287Y-72322371D01*
X211834287Y-71750942D02*
X211891430Y-71722371D01*
X211891430Y-71722371D02*
X212005715Y-71722371D01*
X212005715Y-71722371D02*
X212062858Y-71750942D01*
X212062858Y-71750942D02*
X212091430Y-71779514D01*
X212091430Y-71779514D02*
X212120001Y-71836657D01*
X212120001Y-71836657D02*
X212120001Y-72008085D01*
X212120001Y-72008085D02*
X212091430Y-72065228D01*
X212091430Y-72065228D02*
X212062858Y-72093800D01*
X212062858Y-72093800D02*
X212005715Y-72122371D01*
X212005715Y-72122371D02*
X211891430Y-72122371D01*
X211891430Y-72122371D02*
X211834287Y-72093800D01*
X240257143Y-78572371D02*
X240257143Y-78972371D01*
X240114285Y-78343800D02*
X239971428Y-78772371D01*
X239971428Y-78772371D02*
X240342857Y-78772371D01*
X240514286Y-78372371D02*
X240914286Y-78372371D01*
X240914286Y-78372371D02*
X240657143Y-78972371D01*
X241400001Y-78572371D02*
X241400001Y-78972371D01*
X241142858Y-78572371D02*
X241142858Y-78886657D01*
X241142858Y-78886657D02*
X241171429Y-78943800D01*
X241171429Y-78943800D02*
X241228572Y-78972371D01*
X241228572Y-78972371D02*
X241314286Y-78972371D01*
X241314286Y-78972371D02*
X241371429Y-78943800D01*
X241371429Y-78943800D02*
X241400001Y-78915228D01*
X194949999Y-70429514D02*
X194978571Y-70400942D01*
X194978571Y-70400942D02*
X195035714Y-70372371D01*
X195035714Y-70372371D02*
X195178571Y-70372371D01*
X195178571Y-70372371D02*
X195235714Y-70400942D01*
X195235714Y-70400942D02*
X195264285Y-70429514D01*
X195264285Y-70429514D02*
X195292856Y-70486657D01*
X195292856Y-70486657D02*
X195292856Y-70543800D01*
X195292856Y-70543800D02*
X195264285Y-70629514D01*
X195264285Y-70629514D02*
X194921428Y-70972371D01*
X194921428Y-70972371D02*
X195292856Y-70972371D01*
X195521428Y-70429514D02*
X195550000Y-70400942D01*
X195550000Y-70400942D02*
X195607143Y-70372371D01*
X195607143Y-70372371D02*
X195750000Y-70372371D01*
X195750000Y-70372371D02*
X195807143Y-70400942D01*
X195807143Y-70400942D02*
X195835714Y-70429514D01*
X195835714Y-70429514D02*
X195864285Y-70486657D01*
X195864285Y-70486657D02*
X195864285Y-70543800D01*
X195864285Y-70543800D02*
X195835714Y-70629514D01*
X195835714Y-70629514D02*
X195492857Y-70972371D01*
X195492857Y-70972371D02*
X195864285Y-70972371D01*
X196235714Y-70372371D02*
X196292857Y-70372371D01*
X196292857Y-70372371D02*
X196350000Y-70400942D01*
X196350000Y-70400942D02*
X196378572Y-70429514D01*
X196378572Y-70429514D02*
X196407143Y-70486657D01*
X196407143Y-70486657D02*
X196435714Y-70600942D01*
X196435714Y-70600942D02*
X196435714Y-70743800D01*
X196435714Y-70743800D02*
X196407143Y-70858085D01*
X196407143Y-70858085D02*
X196378572Y-70915228D01*
X196378572Y-70915228D02*
X196350000Y-70943800D01*
X196350000Y-70943800D02*
X196292857Y-70972371D01*
X196292857Y-70972371D02*
X196235714Y-70972371D01*
X196235714Y-70972371D02*
X196178572Y-70943800D01*
X196178572Y-70943800D02*
X196150000Y-70915228D01*
X196150000Y-70915228D02*
X196121429Y-70858085D01*
X196121429Y-70858085D02*
X196092857Y-70743800D01*
X196092857Y-70743800D02*
X196092857Y-70600942D01*
X196092857Y-70600942D02*
X196121429Y-70486657D01*
X196121429Y-70486657D02*
X196150000Y-70429514D01*
X196150000Y-70429514D02*
X196178572Y-70400942D01*
X196178572Y-70400942D02*
X196235714Y-70372371D01*
X196807143Y-70372371D02*
X196864286Y-70372371D01*
X196864286Y-70372371D02*
X196921429Y-70400942D01*
X196921429Y-70400942D02*
X196950001Y-70429514D01*
X196950001Y-70429514D02*
X196978572Y-70486657D01*
X196978572Y-70486657D02*
X197007143Y-70600942D01*
X197007143Y-70600942D02*
X197007143Y-70743800D01*
X197007143Y-70743800D02*
X196978572Y-70858085D01*
X196978572Y-70858085D02*
X196950001Y-70915228D01*
X196950001Y-70915228D02*
X196921429Y-70943800D01*
X196921429Y-70943800D02*
X196864286Y-70972371D01*
X196864286Y-70972371D02*
X196807143Y-70972371D01*
X196807143Y-70972371D02*
X196750001Y-70943800D01*
X196750001Y-70943800D02*
X196721429Y-70915228D01*
X196721429Y-70915228D02*
X196692858Y-70858085D01*
X196692858Y-70858085D02*
X196664286Y-70743800D01*
X196664286Y-70743800D02*
X196664286Y-70600942D01*
X196664286Y-70600942D02*
X196692858Y-70486657D01*
X196692858Y-70486657D02*
X196721429Y-70429514D01*
X196721429Y-70429514D02*
X196750001Y-70400942D01*
X196750001Y-70400942D02*
X196807143Y-70372371D01*
X197264287Y-70572371D02*
X197264287Y-71172371D01*
X197264287Y-70600942D02*
X197321430Y-70572371D01*
X197321430Y-70572371D02*
X197435715Y-70572371D01*
X197435715Y-70572371D02*
X197492858Y-70600942D01*
X197492858Y-70600942D02*
X197521430Y-70629514D01*
X197521430Y-70629514D02*
X197550001Y-70686657D01*
X197550001Y-70686657D02*
X197550001Y-70858085D01*
X197550001Y-70858085D02*
X197521430Y-70915228D01*
X197521430Y-70915228D02*
X197492858Y-70943800D01*
X197492858Y-70943800D02*
X197435715Y-70972371D01*
X197435715Y-70972371D02*
X197321430Y-70972371D01*
X197321430Y-70972371D02*
X197264287Y-70943800D01*
X198950000Y-63422371D02*
X198950000Y-63822371D01*
X198807142Y-63193800D02*
X198664285Y-63622371D01*
X198664285Y-63622371D02*
X199035714Y-63622371D01*
X199292857Y-63822371D02*
X199407143Y-63822371D01*
X199407143Y-63822371D02*
X199464286Y-63793800D01*
X199464286Y-63793800D02*
X199492857Y-63765228D01*
X199492857Y-63765228D02*
X199550000Y-63679514D01*
X199550000Y-63679514D02*
X199578571Y-63565228D01*
X199578571Y-63565228D02*
X199578571Y-63336657D01*
X199578571Y-63336657D02*
X199550000Y-63279514D01*
X199550000Y-63279514D02*
X199521429Y-63250942D01*
X199521429Y-63250942D02*
X199464286Y-63222371D01*
X199464286Y-63222371D02*
X199350000Y-63222371D01*
X199350000Y-63222371D02*
X199292857Y-63250942D01*
X199292857Y-63250942D02*
X199264286Y-63279514D01*
X199264286Y-63279514D02*
X199235714Y-63336657D01*
X199235714Y-63336657D02*
X199235714Y-63479514D01*
X199235714Y-63479514D02*
X199264286Y-63536657D01*
X199264286Y-63536657D02*
X199292857Y-63565228D01*
X199292857Y-63565228D02*
X199350000Y-63593800D01*
X199350000Y-63593800D02*
X199464286Y-63593800D01*
X199464286Y-63593800D02*
X199521429Y-63565228D01*
X199521429Y-63565228D02*
X199550000Y-63536657D01*
X199550000Y-63536657D02*
X199578571Y-63479514D01*
X199835715Y-63765228D02*
X199864286Y-63793800D01*
X199864286Y-63793800D02*
X199835715Y-63822371D01*
X199835715Y-63822371D02*
X199807143Y-63793800D01*
X199807143Y-63793800D02*
X199835715Y-63765228D01*
X199835715Y-63765228D02*
X199835715Y-63822371D01*
X200150000Y-63822371D02*
X200264286Y-63822371D01*
X200264286Y-63822371D02*
X200321429Y-63793800D01*
X200321429Y-63793800D02*
X200350000Y-63765228D01*
X200350000Y-63765228D02*
X200407143Y-63679514D01*
X200407143Y-63679514D02*
X200435714Y-63565228D01*
X200435714Y-63565228D02*
X200435714Y-63336657D01*
X200435714Y-63336657D02*
X200407143Y-63279514D01*
X200407143Y-63279514D02*
X200378572Y-63250942D01*
X200378572Y-63250942D02*
X200321429Y-63222371D01*
X200321429Y-63222371D02*
X200207143Y-63222371D01*
X200207143Y-63222371D02*
X200150000Y-63250942D01*
X200150000Y-63250942D02*
X200121429Y-63279514D01*
X200121429Y-63279514D02*
X200092857Y-63336657D01*
X200092857Y-63336657D02*
X200092857Y-63479514D01*
X200092857Y-63479514D02*
X200121429Y-63536657D01*
X200121429Y-63536657D02*
X200150000Y-63565228D01*
X200150000Y-63565228D02*
X200207143Y-63593800D01*
X200207143Y-63593800D02*
X200321429Y-63593800D01*
X200321429Y-63593800D02*
X200378572Y-63565228D01*
X200378572Y-63565228D02*
X200407143Y-63536657D01*
X200407143Y-63536657D02*
X200435714Y-63479514D01*
X203503371Y-64485714D02*
X203903371Y-64485714D01*
X203274800Y-64628571D02*
X203703371Y-64771428D01*
X203703371Y-64771428D02*
X203703371Y-64399999D01*
X203846228Y-64171427D02*
X203874800Y-64142856D01*
X203874800Y-64142856D02*
X203903371Y-64171427D01*
X203903371Y-64171427D02*
X203874800Y-64199999D01*
X203874800Y-64199999D02*
X203846228Y-64171427D01*
X203846228Y-64171427D02*
X203903371Y-64171427D01*
X203303371Y-63942856D02*
X203303371Y-63542856D01*
X203303371Y-63542856D02*
X203903371Y-63799999D01*
X203503371Y-63057142D02*
X203903371Y-63057142D01*
X203503371Y-63314284D02*
X203817657Y-63314284D01*
X203817657Y-63314284D02*
X203874800Y-63285713D01*
X203874800Y-63285713D02*
X203903371Y-63228570D01*
X203903371Y-63228570D02*
X203903371Y-63142856D01*
X203903371Y-63142856D02*
X203874800Y-63085713D01*
X203874800Y-63085713D02*
X203846228Y-63057142D01*
X204765228Y-64707142D02*
X204793800Y-64678571D01*
X204793800Y-64678571D02*
X204822371Y-64707142D01*
X204822371Y-64707142D02*
X204793800Y-64735714D01*
X204793800Y-64735714D02*
X204765228Y-64707142D01*
X204765228Y-64707142D02*
X204822371Y-64707142D01*
X204822371Y-64107143D02*
X204822371Y-64450000D01*
X204822371Y-64278571D02*
X204222371Y-64278571D01*
X204222371Y-64278571D02*
X204308085Y-64335714D01*
X204308085Y-64335714D02*
X204365228Y-64392857D01*
X204365228Y-64392857D02*
X204393800Y-64450000D01*
X204422371Y-63592857D02*
X204822371Y-63592857D01*
X204422371Y-63849999D02*
X204736657Y-63849999D01*
X204736657Y-63849999D02*
X204793800Y-63821428D01*
X204793800Y-63821428D02*
X204822371Y-63764285D01*
X204822371Y-63764285D02*
X204822371Y-63678571D01*
X204822371Y-63678571D02*
X204793800Y-63621428D01*
X204793800Y-63621428D02*
X204765228Y-63592857D01*
X233771428Y-82372371D02*
X233771428Y-82772371D01*
X233628570Y-82143800D02*
X233485713Y-82572371D01*
X233485713Y-82572371D02*
X233857142Y-82572371D01*
X234028571Y-82172371D02*
X234428571Y-82172371D01*
X234428571Y-82172371D02*
X234171428Y-82772371D01*
X234771428Y-82172371D02*
X234828571Y-82172371D01*
X234828571Y-82172371D02*
X234885714Y-82200942D01*
X234885714Y-82200942D02*
X234914286Y-82229514D01*
X234914286Y-82229514D02*
X234942857Y-82286657D01*
X234942857Y-82286657D02*
X234971428Y-82400942D01*
X234971428Y-82400942D02*
X234971428Y-82543800D01*
X234971428Y-82543800D02*
X234942857Y-82658085D01*
X234942857Y-82658085D02*
X234914286Y-82715228D01*
X234914286Y-82715228D02*
X234885714Y-82743800D01*
X234885714Y-82743800D02*
X234828571Y-82772371D01*
X234828571Y-82772371D02*
X234771428Y-82772371D01*
X234771428Y-82772371D02*
X234714286Y-82743800D01*
X234714286Y-82743800D02*
X234685714Y-82715228D01*
X234685714Y-82715228D02*
X234657143Y-82658085D01*
X234657143Y-82658085D02*
X234628571Y-82543800D01*
X234628571Y-82543800D02*
X234628571Y-82400942D01*
X234628571Y-82400942D02*
X234657143Y-82286657D01*
X234657143Y-82286657D02*
X234685714Y-82229514D01*
X234685714Y-82229514D02*
X234714286Y-82200942D01*
X234714286Y-82200942D02*
X234771428Y-82172371D01*
X235485715Y-82372371D02*
X235485715Y-82772371D01*
X235228572Y-82372371D02*
X235228572Y-82686657D01*
X235228572Y-82686657D02*
X235257143Y-82743800D01*
X235257143Y-82743800D02*
X235314286Y-82772371D01*
X235314286Y-82772371D02*
X235400000Y-82772371D01*
X235400000Y-82772371D02*
X235457143Y-82743800D01*
X235457143Y-82743800D02*
X235485715Y-82715228D01*
X251150000Y-73422371D02*
X251150000Y-73822371D01*
X251007142Y-73193800D02*
X250864285Y-73622371D01*
X250864285Y-73622371D02*
X251235714Y-73622371D01*
X251492857Y-73822371D02*
X251607143Y-73822371D01*
X251607143Y-73822371D02*
X251664286Y-73793800D01*
X251664286Y-73793800D02*
X251692857Y-73765228D01*
X251692857Y-73765228D02*
X251750000Y-73679514D01*
X251750000Y-73679514D02*
X251778571Y-73565228D01*
X251778571Y-73565228D02*
X251778571Y-73336657D01*
X251778571Y-73336657D02*
X251750000Y-73279514D01*
X251750000Y-73279514D02*
X251721429Y-73250942D01*
X251721429Y-73250942D02*
X251664286Y-73222371D01*
X251664286Y-73222371D02*
X251550000Y-73222371D01*
X251550000Y-73222371D02*
X251492857Y-73250942D01*
X251492857Y-73250942D02*
X251464286Y-73279514D01*
X251464286Y-73279514D02*
X251435714Y-73336657D01*
X251435714Y-73336657D02*
X251435714Y-73479514D01*
X251435714Y-73479514D02*
X251464286Y-73536657D01*
X251464286Y-73536657D02*
X251492857Y-73565228D01*
X251492857Y-73565228D02*
X251550000Y-73593800D01*
X251550000Y-73593800D02*
X251664286Y-73593800D01*
X251664286Y-73593800D02*
X251721429Y-73565228D01*
X251721429Y-73565228D02*
X251750000Y-73536657D01*
X251750000Y-73536657D02*
X251778571Y-73479514D01*
X252035715Y-73765228D02*
X252064286Y-73793800D01*
X252064286Y-73793800D02*
X252035715Y-73822371D01*
X252035715Y-73822371D02*
X252007143Y-73793800D01*
X252007143Y-73793800D02*
X252035715Y-73765228D01*
X252035715Y-73765228D02*
X252035715Y-73822371D01*
X252350000Y-73822371D02*
X252464286Y-73822371D01*
X252464286Y-73822371D02*
X252521429Y-73793800D01*
X252521429Y-73793800D02*
X252550000Y-73765228D01*
X252550000Y-73765228D02*
X252607143Y-73679514D01*
X252607143Y-73679514D02*
X252635714Y-73565228D01*
X252635714Y-73565228D02*
X252635714Y-73336657D01*
X252635714Y-73336657D02*
X252607143Y-73279514D01*
X252607143Y-73279514D02*
X252578572Y-73250942D01*
X252578572Y-73250942D02*
X252521429Y-73222371D01*
X252521429Y-73222371D02*
X252407143Y-73222371D01*
X252407143Y-73222371D02*
X252350000Y-73250942D01*
X252350000Y-73250942D02*
X252321429Y-73279514D01*
X252321429Y-73279514D02*
X252292857Y-73336657D01*
X252292857Y-73336657D02*
X252292857Y-73479514D01*
X252292857Y-73479514D02*
X252321429Y-73536657D01*
X252321429Y-73536657D02*
X252350000Y-73565228D01*
X252350000Y-73565228D02*
X252407143Y-73593800D01*
X252407143Y-73593800D02*
X252521429Y-73593800D01*
X252521429Y-73593800D02*
X252578572Y-73565228D01*
X252578572Y-73565228D02*
X252607143Y-73536657D01*
X252607143Y-73536657D02*
X252635714Y-73479514D01*
X205329514Y-64621428D02*
X205300942Y-64592856D01*
X205300942Y-64592856D02*
X205272371Y-64535714D01*
X205272371Y-64535714D02*
X205272371Y-64392856D01*
X205272371Y-64392856D02*
X205300942Y-64335714D01*
X205300942Y-64335714D02*
X205329514Y-64307142D01*
X205329514Y-64307142D02*
X205386657Y-64278571D01*
X205386657Y-64278571D02*
X205443800Y-64278571D01*
X205443800Y-64278571D02*
X205529514Y-64307142D01*
X205529514Y-64307142D02*
X205872371Y-64649999D01*
X205872371Y-64649999D02*
X205872371Y-64278571D01*
X205815228Y-64021427D02*
X205843800Y-63992856D01*
X205843800Y-63992856D02*
X205872371Y-64021427D01*
X205872371Y-64021427D02*
X205843800Y-64049999D01*
X205843800Y-64049999D02*
X205815228Y-64021427D01*
X205815228Y-64021427D02*
X205872371Y-64021427D01*
X205329514Y-63764285D02*
X205300942Y-63735713D01*
X205300942Y-63735713D02*
X205272371Y-63678571D01*
X205272371Y-63678571D02*
X205272371Y-63535713D01*
X205272371Y-63535713D02*
X205300942Y-63478571D01*
X205300942Y-63478571D02*
X205329514Y-63449999D01*
X205329514Y-63449999D02*
X205386657Y-63421428D01*
X205386657Y-63421428D02*
X205443800Y-63421428D01*
X205443800Y-63421428D02*
X205529514Y-63449999D01*
X205529514Y-63449999D02*
X205872371Y-63792856D01*
X205872371Y-63792856D02*
X205872371Y-63421428D01*
X205472371Y-62907142D02*
X205872371Y-62907142D01*
X205472371Y-63164284D02*
X205786657Y-63164284D01*
X205786657Y-63164284D02*
X205843800Y-63135713D01*
X205843800Y-63135713D02*
X205872371Y-63078570D01*
X205872371Y-63078570D02*
X205872371Y-62992856D01*
X205872371Y-62992856D02*
X205843800Y-62935713D01*
X205843800Y-62935713D02*
X205815228Y-62907142D01*
X202972371Y-77737142D02*
X202972371Y-77365714D01*
X202972371Y-77365714D02*
X203200942Y-77565714D01*
X203200942Y-77565714D02*
X203200942Y-77479999D01*
X203200942Y-77479999D02*
X203229514Y-77422857D01*
X203229514Y-77422857D02*
X203258085Y-77394285D01*
X203258085Y-77394285D02*
X203315228Y-77365714D01*
X203315228Y-77365714D02*
X203458085Y-77365714D01*
X203458085Y-77365714D02*
X203515228Y-77394285D01*
X203515228Y-77394285D02*
X203543800Y-77422857D01*
X203543800Y-77422857D02*
X203572371Y-77479999D01*
X203572371Y-77479999D02*
X203572371Y-77651428D01*
X203572371Y-77651428D02*
X203543800Y-77708571D01*
X203543800Y-77708571D02*
X203515228Y-77737142D01*
X203172371Y-76851428D02*
X203572371Y-76851428D01*
X202943800Y-76994285D02*
X203372371Y-77137142D01*
X203372371Y-77137142D02*
X203372371Y-76765713D01*
X203515228Y-76537141D02*
X203543800Y-76508570D01*
X203543800Y-76508570D02*
X203572371Y-76537141D01*
X203572371Y-76537141D02*
X203543800Y-76565713D01*
X203543800Y-76565713D02*
X203515228Y-76537141D01*
X203515228Y-76537141D02*
X203572371Y-76537141D01*
X203229514Y-76165713D02*
X203200942Y-76222856D01*
X203200942Y-76222856D02*
X203172371Y-76251427D01*
X203172371Y-76251427D02*
X203115228Y-76279999D01*
X203115228Y-76279999D02*
X203086657Y-76279999D01*
X203086657Y-76279999D02*
X203029514Y-76251427D01*
X203029514Y-76251427D02*
X203000942Y-76222856D01*
X203000942Y-76222856D02*
X202972371Y-76165713D01*
X202972371Y-76165713D02*
X202972371Y-76051427D01*
X202972371Y-76051427D02*
X203000942Y-75994285D01*
X203000942Y-75994285D02*
X203029514Y-75965713D01*
X203029514Y-75965713D02*
X203086657Y-75937142D01*
X203086657Y-75937142D02*
X203115228Y-75937142D01*
X203115228Y-75937142D02*
X203172371Y-75965713D01*
X203172371Y-75965713D02*
X203200942Y-75994285D01*
X203200942Y-75994285D02*
X203229514Y-76051427D01*
X203229514Y-76051427D02*
X203229514Y-76165713D01*
X203229514Y-76165713D02*
X203258085Y-76222856D01*
X203258085Y-76222856D02*
X203286657Y-76251427D01*
X203286657Y-76251427D02*
X203343800Y-76279999D01*
X203343800Y-76279999D02*
X203458085Y-76279999D01*
X203458085Y-76279999D02*
X203515228Y-76251427D01*
X203515228Y-76251427D02*
X203543800Y-76222856D01*
X203543800Y-76222856D02*
X203572371Y-76165713D01*
X203572371Y-76165713D02*
X203572371Y-76051427D01*
X203572371Y-76051427D02*
X203543800Y-75994285D01*
X203543800Y-75994285D02*
X203515228Y-75965713D01*
X203515228Y-75965713D02*
X203458085Y-75937142D01*
X203458085Y-75937142D02*
X203343800Y-75937142D01*
X203343800Y-75937142D02*
X203286657Y-75965713D01*
X203286657Y-75965713D02*
X203258085Y-75994285D01*
X203258085Y-75994285D02*
X203229514Y-76051427D01*
X203572371Y-75679998D02*
X202972371Y-75679998D01*
X203343800Y-75622856D02*
X203572371Y-75451427D01*
X203172371Y-75451427D02*
X203400942Y-75679998D01*
X225721428Y-82372371D02*
X225721428Y-82772371D01*
X225578570Y-82143800D02*
X225435713Y-82572371D01*
X225435713Y-82572371D02*
X225807142Y-82572371D01*
X225978571Y-82172371D02*
X226378571Y-82172371D01*
X226378571Y-82172371D02*
X226121428Y-82772371D01*
X226721428Y-82172371D02*
X226778571Y-82172371D01*
X226778571Y-82172371D02*
X226835714Y-82200942D01*
X226835714Y-82200942D02*
X226864286Y-82229514D01*
X226864286Y-82229514D02*
X226892857Y-82286657D01*
X226892857Y-82286657D02*
X226921428Y-82400942D01*
X226921428Y-82400942D02*
X226921428Y-82543800D01*
X226921428Y-82543800D02*
X226892857Y-82658085D01*
X226892857Y-82658085D02*
X226864286Y-82715228D01*
X226864286Y-82715228D02*
X226835714Y-82743800D01*
X226835714Y-82743800D02*
X226778571Y-82772371D01*
X226778571Y-82772371D02*
X226721428Y-82772371D01*
X226721428Y-82772371D02*
X226664286Y-82743800D01*
X226664286Y-82743800D02*
X226635714Y-82715228D01*
X226635714Y-82715228D02*
X226607143Y-82658085D01*
X226607143Y-82658085D02*
X226578571Y-82543800D01*
X226578571Y-82543800D02*
X226578571Y-82400942D01*
X226578571Y-82400942D02*
X226607143Y-82286657D01*
X226607143Y-82286657D02*
X226635714Y-82229514D01*
X226635714Y-82229514D02*
X226664286Y-82200942D01*
X226664286Y-82200942D02*
X226721428Y-82172371D01*
X227435715Y-82372371D02*
X227435715Y-82772371D01*
X227178572Y-82372371D02*
X227178572Y-82686657D01*
X227178572Y-82686657D02*
X227207143Y-82743800D01*
X227207143Y-82743800D02*
X227264286Y-82772371D01*
X227264286Y-82772371D02*
X227350000Y-82772371D01*
X227350000Y-82772371D02*
X227407143Y-82743800D01*
X227407143Y-82743800D02*
X227435715Y-82715228D01*
X205985714Y-75225228D02*
X205957142Y-75253800D01*
X205957142Y-75253800D02*
X205871428Y-75282371D01*
X205871428Y-75282371D02*
X205814285Y-75282371D01*
X205814285Y-75282371D02*
X205728571Y-75253800D01*
X205728571Y-75253800D02*
X205671428Y-75196657D01*
X205671428Y-75196657D02*
X205642857Y-75139514D01*
X205642857Y-75139514D02*
X205614285Y-75025228D01*
X205614285Y-75025228D02*
X205614285Y-74939514D01*
X205614285Y-74939514D02*
X205642857Y-74825228D01*
X205642857Y-74825228D02*
X205671428Y-74768085D01*
X205671428Y-74768085D02*
X205728571Y-74710942D01*
X205728571Y-74710942D02*
X205814285Y-74682371D01*
X205814285Y-74682371D02*
X205871428Y-74682371D01*
X205871428Y-74682371D02*
X205957142Y-74710942D01*
X205957142Y-74710942D02*
X205985714Y-74739514D01*
X252972371Y-77212857D02*
X252972371Y-76841429D01*
X252972371Y-76841429D02*
X253200942Y-77041429D01*
X253200942Y-77041429D02*
X253200942Y-76955714D01*
X253200942Y-76955714D02*
X253229514Y-76898572D01*
X253229514Y-76898572D02*
X253258085Y-76870000D01*
X253258085Y-76870000D02*
X253315228Y-76841429D01*
X253315228Y-76841429D02*
X253458085Y-76841429D01*
X253458085Y-76841429D02*
X253515228Y-76870000D01*
X253515228Y-76870000D02*
X253543800Y-76898572D01*
X253543800Y-76898572D02*
X253572371Y-76955714D01*
X253572371Y-76955714D02*
X253572371Y-77127143D01*
X253572371Y-77127143D02*
X253543800Y-77184286D01*
X253543800Y-77184286D02*
X253515228Y-77212857D01*
X252972371Y-76641428D02*
X252972371Y-76270000D01*
X252972371Y-76270000D02*
X253200942Y-76470000D01*
X253200942Y-76470000D02*
X253200942Y-76384285D01*
X253200942Y-76384285D02*
X253229514Y-76327143D01*
X253229514Y-76327143D02*
X253258085Y-76298571D01*
X253258085Y-76298571D02*
X253315228Y-76270000D01*
X253315228Y-76270000D02*
X253458085Y-76270000D01*
X253458085Y-76270000D02*
X253515228Y-76298571D01*
X253515228Y-76298571D02*
X253543800Y-76327143D01*
X253543800Y-76327143D02*
X253572371Y-76384285D01*
X253572371Y-76384285D02*
X253572371Y-76555714D01*
X253572371Y-76555714D02*
X253543800Y-76612857D01*
X253543800Y-76612857D02*
X253515228Y-76641428D01*
X252972371Y-75898571D02*
X252972371Y-75841428D01*
X252972371Y-75841428D02*
X253000942Y-75784285D01*
X253000942Y-75784285D02*
X253029514Y-75755714D01*
X253029514Y-75755714D02*
X253086657Y-75727142D01*
X253086657Y-75727142D02*
X253200942Y-75698571D01*
X253200942Y-75698571D02*
X253343800Y-75698571D01*
X253343800Y-75698571D02*
X253458085Y-75727142D01*
X253458085Y-75727142D02*
X253515228Y-75755714D01*
X253515228Y-75755714D02*
X253543800Y-75784285D01*
X253543800Y-75784285D02*
X253572371Y-75841428D01*
X253572371Y-75841428D02*
X253572371Y-75898571D01*
X253572371Y-75898571D02*
X253543800Y-75955714D01*
X253543800Y-75955714D02*
X253515228Y-75984285D01*
X253515228Y-75984285D02*
X253458085Y-76012856D01*
X253458085Y-76012856D02*
X253343800Y-76041428D01*
X253343800Y-76041428D02*
X253200942Y-76041428D01*
X253200942Y-76041428D02*
X253086657Y-76012856D01*
X253086657Y-76012856D02*
X253029514Y-75984285D01*
X253029514Y-75984285D02*
X253000942Y-75955714D01*
X253000942Y-75955714D02*
X252972371Y-75898571D01*
X253172371Y-75441427D02*
X253772371Y-75441427D01*
X253200942Y-75441427D02*
X253172371Y-75384285D01*
X253172371Y-75384285D02*
X253172371Y-75269999D01*
X253172371Y-75269999D02*
X253200942Y-75212856D01*
X253200942Y-75212856D02*
X253229514Y-75184285D01*
X253229514Y-75184285D02*
X253286657Y-75155713D01*
X253286657Y-75155713D02*
X253458085Y-75155713D01*
X253458085Y-75155713D02*
X253515228Y-75184285D01*
X253515228Y-75184285D02*
X253543800Y-75212856D01*
X253543800Y-75212856D02*
X253572371Y-75269999D01*
X253572371Y-75269999D02*
X253572371Y-75384285D01*
X253572371Y-75384285D02*
X253543800Y-75441427D01*
X243257143Y-78572371D02*
X243257143Y-78972371D01*
X243114285Y-78343800D02*
X242971428Y-78772371D01*
X242971428Y-78772371D02*
X243342857Y-78772371D01*
X243514286Y-78372371D02*
X243914286Y-78372371D01*
X243914286Y-78372371D02*
X243657143Y-78972371D01*
X244400001Y-78572371D02*
X244400001Y-78972371D01*
X244142858Y-78572371D02*
X244142858Y-78886657D01*
X244142858Y-78886657D02*
X244171429Y-78943800D01*
X244171429Y-78943800D02*
X244228572Y-78972371D01*
X244228572Y-78972371D02*
X244314286Y-78972371D01*
X244314286Y-78972371D02*
X244371429Y-78943800D01*
X244371429Y-78943800D02*
X244400001Y-78915228D01*
X210243714Y-65570228D02*
X210215142Y-65598800D01*
X210215142Y-65598800D02*
X210129428Y-65627371D01*
X210129428Y-65627371D02*
X210072285Y-65627371D01*
X210072285Y-65627371D02*
X209986571Y-65598800D01*
X209986571Y-65598800D02*
X209929428Y-65541657D01*
X209929428Y-65541657D02*
X209900857Y-65484514D01*
X209900857Y-65484514D02*
X209872285Y-65370228D01*
X209872285Y-65370228D02*
X209872285Y-65284514D01*
X209872285Y-65284514D02*
X209900857Y-65170228D01*
X209900857Y-65170228D02*
X209929428Y-65113085D01*
X209929428Y-65113085D02*
X209986571Y-65055942D01*
X209986571Y-65055942D02*
X210072285Y-65027371D01*
X210072285Y-65027371D02*
X210129428Y-65027371D01*
X210129428Y-65027371D02*
X210215142Y-65055942D01*
X210215142Y-65055942D02*
X210243714Y-65084514D01*
X251140000Y-78992371D02*
X251140000Y-79392371D01*
X250997142Y-78763800D02*
X250854285Y-79192371D01*
X250854285Y-79192371D02*
X251225714Y-79192371D01*
X251482857Y-79392371D02*
X251597143Y-79392371D01*
X251597143Y-79392371D02*
X251654286Y-79363800D01*
X251654286Y-79363800D02*
X251682857Y-79335228D01*
X251682857Y-79335228D02*
X251740000Y-79249514D01*
X251740000Y-79249514D02*
X251768571Y-79135228D01*
X251768571Y-79135228D02*
X251768571Y-78906657D01*
X251768571Y-78906657D02*
X251740000Y-78849514D01*
X251740000Y-78849514D02*
X251711429Y-78820942D01*
X251711429Y-78820942D02*
X251654286Y-78792371D01*
X251654286Y-78792371D02*
X251540000Y-78792371D01*
X251540000Y-78792371D02*
X251482857Y-78820942D01*
X251482857Y-78820942D02*
X251454286Y-78849514D01*
X251454286Y-78849514D02*
X251425714Y-78906657D01*
X251425714Y-78906657D02*
X251425714Y-79049514D01*
X251425714Y-79049514D02*
X251454286Y-79106657D01*
X251454286Y-79106657D02*
X251482857Y-79135228D01*
X251482857Y-79135228D02*
X251540000Y-79163800D01*
X251540000Y-79163800D02*
X251654286Y-79163800D01*
X251654286Y-79163800D02*
X251711429Y-79135228D01*
X251711429Y-79135228D02*
X251740000Y-79106657D01*
X251740000Y-79106657D02*
X251768571Y-79049514D01*
X252025715Y-79335228D02*
X252054286Y-79363800D01*
X252054286Y-79363800D02*
X252025715Y-79392371D01*
X252025715Y-79392371D02*
X251997143Y-79363800D01*
X251997143Y-79363800D02*
X252025715Y-79335228D01*
X252025715Y-79335228D02*
X252025715Y-79392371D01*
X252340000Y-79392371D02*
X252454286Y-79392371D01*
X252454286Y-79392371D02*
X252511429Y-79363800D01*
X252511429Y-79363800D02*
X252540000Y-79335228D01*
X252540000Y-79335228D02*
X252597143Y-79249514D01*
X252597143Y-79249514D02*
X252625714Y-79135228D01*
X252625714Y-79135228D02*
X252625714Y-78906657D01*
X252625714Y-78906657D02*
X252597143Y-78849514D01*
X252597143Y-78849514D02*
X252568572Y-78820942D01*
X252568572Y-78820942D02*
X252511429Y-78792371D01*
X252511429Y-78792371D02*
X252397143Y-78792371D01*
X252397143Y-78792371D02*
X252340000Y-78820942D01*
X252340000Y-78820942D02*
X252311429Y-78849514D01*
X252311429Y-78849514D02*
X252282857Y-78906657D01*
X252282857Y-78906657D02*
X252282857Y-79049514D01*
X252282857Y-79049514D02*
X252311429Y-79106657D01*
X252311429Y-79106657D02*
X252340000Y-79135228D01*
X252340000Y-79135228D02*
X252397143Y-79163800D01*
X252397143Y-79163800D02*
X252511429Y-79163800D01*
X252511429Y-79163800D02*
X252568572Y-79135228D01*
X252568572Y-79135228D02*
X252597143Y-79106657D01*
X252597143Y-79106657D02*
X252625714Y-79049514D01*
X198692856Y-64722371D02*
X198349999Y-64722371D01*
X198521428Y-64722371D02*
X198521428Y-64122371D01*
X198521428Y-64122371D02*
X198464285Y-64208085D01*
X198464285Y-64208085D02*
X198407142Y-64265228D01*
X198407142Y-64265228D02*
X198349999Y-64293800D01*
X199064285Y-64122371D02*
X199121428Y-64122371D01*
X199121428Y-64122371D02*
X199178571Y-64150942D01*
X199178571Y-64150942D02*
X199207143Y-64179514D01*
X199207143Y-64179514D02*
X199235714Y-64236657D01*
X199235714Y-64236657D02*
X199264285Y-64350942D01*
X199264285Y-64350942D02*
X199264285Y-64493800D01*
X199264285Y-64493800D02*
X199235714Y-64608085D01*
X199235714Y-64608085D02*
X199207143Y-64665228D01*
X199207143Y-64665228D02*
X199178571Y-64693800D01*
X199178571Y-64693800D02*
X199121428Y-64722371D01*
X199121428Y-64722371D02*
X199064285Y-64722371D01*
X199064285Y-64722371D02*
X199007143Y-64693800D01*
X199007143Y-64693800D02*
X198978571Y-64665228D01*
X198978571Y-64665228D02*
X198950000Y-64608085D01*
X198950000Y-64608085D02*
X198921428Y-64493800D01*
X198921428Y-64493800D02*
X198921428Y-64350942D01*
X198921428Y-64350942D02*
X198950000Y-64236657D01*
X198950000Y-64236657D02*
X198978571Y-64179514D01*
X198978571Y-64179514D02*
X199007143Y-64150942D01*
X199007143Y-64150942D02*
X199064285Y-64122371D01*
X199521429Y-64722371D02*
X199521429Y-64122371D01*
X199578572Y-64493800D02*
X199750000Y-64722371D01*
X199750000Y-64322371D02*
X199521429Y-64550942D01*
X200722371Y-77422857D02*
X200722371Y-77537142D01*
X200722371Y-77537142D02*
X200750942Y-77594285D01*
X200750942Y-77594285D02*
X200779514Y-77622857D01*
X200779514Y-77622857D02*
X200865228Y-77679999D01*
X200865228Y-77679999D02*
X200979514Y-77708571D01*
X200979514Y-77708571D02*
X201208085Y-77708571D01*
X201208085Y-77708571D02*
X201265228Y-77679999D01*
X201265228Y-77679999D02*
X201293800Y-77651428D01*
X201293800Y-77651428D02*
X201322371Y-77594285D01*
X201322371Y-77594285D02*
X201322371Y-77479999D01*
X201322371Y-77479999D02*
X201293800Y-77422857D01*
X201293800Y-77422857D02*
X201265228Y-77394285D01*
X201265228Y-77394285D02*
X201208085Y-77365714D01*
X201208085Y-77365714D02*
X201065228Y-77365714D01*
X201065228Y-77365714D02*
X201008085Y-77394285D01*
X201008085Y-77394285D02*
X200979514Y-77422857D01*
X200979514Y-77422857D02*
X200950942Y-77479999D01*
X200950942Y-77479999D02*
X200950942Y-77594285D01*
X200950942Y-77594285D02*
X200979514Y-77651428D01*
X200979514Y-77651428D02*
X201008085Y-77679999D01*
X201008085Y-77679999D02*
X201065228Y-77708571D01*
X200979514Y-77022856D02*
X200950942Y-77079999D01*
X200950942Y-77079999D02*
X200922371Y-77108570D01*
X200922371Y-77108570D02*
X200865228Y-77137142D01*
X200865228Y-77137142D02*
X200836657Y-77137142D01*
X200836657Y-77137142D02*
X200779514Y-77108570D01*
X200779514Y-77108570D02*
X200750942Y-77079999D01*
X200750942Y-77079999D02*
X200722371Y-77022856D01*
X200722371Y-77022856D02*
X200722371Y-76908570D01*
X200722371Y-76908570D02*
X200750942Y-76851428D01*
X200750942Y-76851428D02*
X200779514Y-76822856D01*
X200779514Y-76822856D02*
X200836657Y-76794285D01*
X200836657Y-76794285D02*
X200865228Y-76794285D01*
X200865228Y-76794285D02*
X200922371Y-76822856D01*
X200922371Y-76822856D02*
X200950942Y-76851428D01*
X200950942Y-76851428D02*
X200979514Y-76908570D01*
X200979514Y-76908570D02*
X200979514Y-77022856D01*
X200979514Y-77022856D02*
X201008085Y-77079999D01*
X201008085Y-77079999D02*
X201036657Y-77108570D01*
X201036657Y-77108570D02*
X201093800Y-77137142D01*
X201093800Y-77137142D02*
X201208085Y-77137142D01*
X201208085Y-77137142D02*
X201265228Y-77108570D01*
X201265228Y-77108570D02*
X201293800Y-77079999D01*
X201293800Y-77079999D02*
X201322371Y-77022856D01*
X201322371Y-77022856D02*
X201322371Y-76908570D01*
X201322371Y-76908570D02*
X201293800Y-76851428D01*
X201293800Y-76851428D02*
X201265228Y-76822856D01*
X201265228Y-76822856D02*
X201208085Y-76794285D01*
X201208085Y-76794285D02*
X201093800Y-76794285D01*
X201093800Y-76794285D02*
X201036657Y-76822856D01*
X201036657Y-76822856D02*
X201008085Y-76851428D01*
X201008085Y-76851428D02*
X200979514Y-76908570D01*
X201265228Y-76537141D02*
X201293800Y-76508570D01*
X201293800Y-76508570D02*
X201322371Y-76537141D01*
X201322371Y-76537141D02*
X201293800Y-76565713D01*
X201293800Y-76565713D02*
X201265228Y-76537141D01*
X201265228Y-76537141D02*
X201322371Y-76537141D01*
X201322371Y-75937142D02*
X201322371Y-76279999D01*
X201322371Y-76108570D02*
X200722371Y-76108570D01*
X200722371Y-76108570D02*
X200808085Y-76165713D01*
X200808085Y-76165713D02*
X200865228Y-76222856D01*
X200865228Y-76222856D02*
X200893800Y-76279999D01*
X201322371Y-75679998D02*
X200722371Y-75679998D01*
X201093800Y-75622856D02*
X201322371Y-75451427D01*
X200922371Y-75451427D02*
X201150942Y-75679998D01*
X246107143Y-78672371D02*
X246107143Y-79072371D01*
X245964285Y-78443800D02*
X245821428Y-78872371D01*
X245821428Y-78872371D02*
X246192857Y-78872371D01*
X246364286Y-78472371D02*
X246764286Y-78472371D01*
X246764286Y-78472371D02*
X246507143Y-79072371D01*
X247250001Y-78672371D02*
X247250001Y-79072371D01*
X246992858Y-78672371D02*
X246992858Y-78986657D01*
X246992858Y-78986657D02*
X247021429Y-79043800D01*
X247021429Y-79043800D02*
X247078572Y-79072371D01*
X247078572Y-79072371D02*
X247164286Y-79072371D01*
X247164286Y-79072371D02*
X247221429Y-79043800D01*
X247221429Y-79043800D02*
X247250001Y-79015228D01*
D13*
X208552142Y-46574580D02*
X208504523Y-46622200D01*
X208504523Y-46622200D02*
X208361666Y-46669819D01*
X208361666Y-46669819D02*
X208266428Y-46669819D01*
X208266428Y-46669819D02*
X208123571Y-46622200D01*
X208123571Y-46622200D02*
X208028333Y-46526961D01*
X208028333Y-46526961D02*
X207980714Y-46431723D01*
X207980714Y-46431723D02*
X207933095Y-46241247D01*
X207933095Y-46241247D02*
X207933095Y-46098390D01*
X207933095Y-46098390D02*
X207980714Y-45907914D01*
X207980714Y-45907914D02*
X208028333Y-45812676D01*
X208028333Y-45812676D02*
X208123571Y-45717438D01*
X208123571Y-45717438D02*
X208266428Y-45669819D01*
X208266428Y-45669819D02*
X208361666Y-45669819D01*
X208361666Y-45669819D02*
X208504523Y-45717438D01*
X208504523Y-45717438D02*
X208552142Y-45765057D01*
X209504523Y-46669819D02*
X208933095Y-46669819D01*
X209218809Y-46669819D02*
X209218809Y-45669819D01*
X209218809Y-45669819D02*
X209123571Y-45812676D01*
X209123571Y-45812676D02*
X209028333Y-45907914D01*
X209028333Y-45907914D02*
X208933095Y-45955533D01*
X210123571Y-45669819D02*
X210218809Y-45669819D01*
X210218809Y-45669819D02*
X210314047Y-45717438D01*
X210314047Y-45717438D02*
X210361666Y-45765057D01*
X210361666Y-45765057D02*
X210409285Y-45860295D01*
X210409285Y-45860295D02*
X210456904Y-46050771D01*
X210456904Y-46050771D02*
X210456904Y-46288866D01*
X210456904Y-46288866D02*
X210409285Y-46479342D01*
X210409285Y-46479342D02*
X210361666Y-46574580D01*
X210361666Y-46574580D02*
X210314047Y-46622200D01*
X210314047Y-46622200D02*
X210218809Y-46669819D01*
X210218809Y-46669819D02*
X210123571Y-46669819D01*
X210123571Y-46669819D02*
X210028333Y-46622200D01*
X210028333Y-46622200D02*
X209980714Y-46574580D01*
X209980714Y-46574580D02*
X209933095Y-46479342D01*
X209933095Y-46479342D02*
X209885476Y-46288866D01*
X209885476Y-46288866D02*
X209885476Y-46050771D01*
X209885476Y-46050771D02*
X209933095Y-45860295D01*
X209933095Y-45860295D02*
X209980714Y-45765057D01*
X209980714Y-45765057D02*
X210028333Y-45717438D01*
X210028333Y-45717438D02*
X210123571Y-45669819D01*
D12*
X213007142Y-87222371D02*
X213378570Y-87222371D01*
X213378570Y-87222371D02*
X213178570Y-87450942D01*
X213178570Y-87450942D02*
X213264285Y-87450942D01*
X213264285Y-87450942D02*
X213321428Y-87479514D01*
X213321428Y-87479514D02*
X213349999Y-87508085D01*
X213349999Y-87508085D02*
X213378570Y-87565228D01*
X213378570Y-87565228D02*
X213378570Y-87708085D01*
X213378570Y-87708085D02*
X213349999Y-87765228D01*
X213349999Y-87765228D02*
X213321428Y-87793800D01*
X213321428Y-87793800D02*
X213264285Y-87822371D01*
X213264285Y-87822371D02*
X213092856Y-87822371D01*
X213092856Y-87822371D02*
X213035713Y-87793800D01*
X213035713Y-87793800D02*
X213007142Y-87765228D01*
X213749999Y-87222371D02*
X213807142Y-87222371D01*
X213807142Y-87222371D02*
X213864285Y-87250942D01*
X213864285Y-87250942D02*
X213892857Y-87279514D01*
X213892857Y-87279514D02*
X213921428Y-87336657D01*
X213921428Y-87336657D02*
X213949999Y-87450942D01*
X213949999Y-87450942D02*
X213949999Y-87593800D01*
X213949999Y-87593800D02*
X213921428Y-87708085D01*
X213921428Y-87708085D02*
X213892857Y-87765228D01*
X213892857Y-87765228D02*
X213864285Y-87793800D01*
X213864285Y-87793800D02*
X213807142Y-87822371D01*
X213807142Y-87822371D02*
X213749999Y-87822371D01*
X213749999Y-87822371D02*
X213692857Y-87793800D01*
X213692857Y-87793800D02*
X213664285Y-87765228D01*
X213664285Y-87765228D02*
X213635714Y-87708085D01*
X213635714Y-87708085D02*
X213607142Y-87593800D01*
X213607142Y-87593800D02*
X213607142Y-87450942D01*
X213607142Y-87450942D02*
X213635714Y-87336657D01*
X213635714Y-87336657D02*
X213664285Y-87279514D01*
X213664285Y-87279514D02*
X213692857Y-87250942D01*
X213692857Y-87250942D02*
X213749999Y-87222371D01*
X214321428Y-87222371D02*
X214378571Y-87222371D01*
X214378571Y-87222371D02*
X214435714Y-87250942D01*
X214435714Y-87250942D02*
X214464286Y-87279514D01*
X214464286Y-87279514D02*
X214492857Y-87336657D01*
X214492857Y-87336657D02*
X214521428Y-87450942D01*
X214521428Y-87450942D02*
X214521428Y-87593800D01*
X214521428Y-87593800D02*
X214492857Y-87708085D01*
X214492857Y-87708085D02*
X214464286Y-87765228D01*
X214464286Y-87765228D02*
X214435714Y-87793800D01*
X214435714Y-87793800D02*
X214378571Y-87822371D01*
X214378571Y-87822371D02*
X214321428Y-87822371D01*
X214321428Y-87822371D02*
X214264286Y-87793800D01*
X214264286Y-87793800D02*
X214235714Y-87765228D01*
X214235714Y-87765228D02*
X214207143Y-87708085D01*
X214207143Y-87708085D02*
X214178571Y-87593800D01*
X214178571Y-87593800D02*
X214178571Y-87450942D01*
X214178571Y-87450942D02*
X214207143Y-87336657D01*
X214207143Y-87336657D02*
X214235714Y-87279514D01*
X214235714Y-87279514D02*
X214264286Y-87250942D01*
X214264286Y-87250942D02*
X214321428Y-87222371D01*
X214778572Y-87422371D02*
X214778572Y-87822371D01*
X214778572Y-87479514D02*
X214807143Y-87450942D01*
X214807143Y-87450942D02*
X214864286Y-87422371D01*
X214864286Y-87422371D02*
X214950000Y-87422371D01*
X214950000Y-87422371D02*
X215007143Y-87450942D01*
X215007143Y-87450942D02*
X215035715Y-87508085D01*
X215035715Y-87508085D02*
X215035715Y-87822371D01*
X213211428Y-72072371D02*
X212868571Y-72072371D01*
X213040000Y-72072371D02*
X213040000Y-71472371D01*
X213040000Y-71472371D02*
X212982857Y-71558085D01*
X212982857Y-71558085D02*
X212925714Y-71615228D01*
X212925714Y-71615228D02*
X212868571Y-71643800D01*
X210243714Y-66615228D02*
X210215142Y-66643800D01*
X210215142Y-66643800D02*
X210129428Y-66672371D01*
X210129428Y-66672371D02*
X210072285Y-66672371D01*
X210072285Y-66672371D02*
X209986571Y-66643800D01*
X209986571Y-66643800D02*
X209929428Y-66586657D01*
X209929428Y-66586657D02*
X209900857Y-66529514D01*
X209900857Y-66529514D02*
X209872285Y-66415228D01*
X209872285Y-66415228D02*
X209872285Y-66329514D01*
X209872285Y-66329514D02*
X209900857Y-66215228D01*
X209900857Y-66215228D02*
X209929428Y-66158085D01*
X209929428Y-66158085D02*
X209986571Y-66100942D01*
X209986571Y-66100942D02*
X210072285Y-66072371D01*
X210072285Y-66072371D02*
X210129428Y-66072371D01*
X210129428Y-66072371D02*
X210215142Y-66100942D01*
X210215142Y-66100942D02*
X210243714Y-66129514D01*
X200079514Y-73514286D02*
X200050942Y-73485714D01*
X200050942Y-73485714D02*
X200022371Y-73428572D01*
X200022371Y-73428572D02*
X200022371Y-73285714D01*
X200022371Y-73285714D02*
X200050942Y-73228572D01*
X200050942Y-73228572D02*
X200079514Y-73200000D01*
X200079514Y-73200000D02*
X200136657Y-73171429D01*
X200136657Y-73171429D02*
X200193800Y-73171429D01*
X200193800Y-73171429D02*
X200279514Y-73200000D01*
X200279514Y-73200000D02*
X200622371Y-73542857D01*
X200622371Y-73542857D02*
X200622371Y-73171429D01*
X200022371Y-72971428D02*
X200022371Y-72571428D01*
X200022371Y-72571428D02*
X200622371Y-72828571D01*
X200022371Y-72228571D02*
X200022371Y-72171428D01*
X200022371Y-72171428D02*
X200050942Y-72114285D01*
X200050942Y-72114285D02*
X200079514Y-72085714D01*
X200079514Y-72085714D02*
X200136657Y-72057142D01*
X200136657Y-72057142D02*
X200250942Y-72028571D01*
X200250942Y-72028571D02*
X200393800Y-72028571D01*
X200393800Y-72028571D02*
X200508085Y-72057142D01*
X200508085Y-72057142D02*
X200565228Y-72085714D01*
X200565228Y-72085714D02*
X200593800Y-72114285D01*
X200593800Y-72114285D02*
X200622371Y-72171428D01*
X200622371Y-72171428D02*
X200622371Y-72228571D01*
X200622371Y-72228571D02*
X200593800Y-72285714D01*
X200593800Y-72285714D02*
X200565228Y-72314285D01*
X200565228Y-72314285D02*
X200508085Y-72342856D01*
X200508085Y-72342856D02*
X200393800Y-72371428D01*
X200393800Y-72371428D02*
X200250942Y-72371428D01*
X200250942Y-72371428D02*
X200136657Y-72342856D01*
X200136657Y-72342856D02*
X200079514Y-72314285D01*
X200079514Y-72314285D02*
X200050942Y-72285714D01*
X200050942Y-72285714D02*
X200022371Y-72228571D01*
X200222371Y-71771427D02*
X200822371Y-71771427D01*
X200250942Y-71771427D02*
X200222371Y-71714285D01*
X200222371Y-71714285D02*
X200222371Y-71599999D01*
X200222371Y-71599999D02*
X200250942Y-71542856D01*
X200250942Y-71542856D02*
X200279514Y-71514285D01*
X200279514Y-71514285D02*
X200336657Y-71485713D01*
X200336657Y-71485713D02*
X200508085Y-71485713D01*
X200508085Y-71485713D02*
X200565228Y-71514285D01*
X200565228Y-71514285D02*
X200593800Y-71542856D01*
X200593800Y-71542856D02*
X200622371Y-71599999D01*
X200622371Y-71599999D02*
X200622371Y-71714285D01*
X200622371Y-71714285D02*
X200593800Y-71771427D01*
X198342856Y-65572371D02*
X197999999Y-65572371D01*
X198171428Y-65572371D02*
X198171428Y-64972371D01*
X198171428Y-64972371D02*
X198114285Y-65058085D01*
X198114285Y-65058085D02*
X198057142Y-65115228D01*
X198057142Y-65115228D02*
X197999999Y-65143800D01*
X198571428Y-65029514D02*
X198600000Y-65000942D01*
X198600000Y-65000942D02*
X198657143Y-64972371D01*
X198657143Y-64972371D02*
X198800000Y-64972371D01*
X198800000Y-64972371D02*
X198857143Y-65000942D01*
X198857143Y-65000942D02*
X198885714Y-65029514D01*
X198885714Y-65029514D02*
X198914285Y-65086657D01*
X198914285Y-65086657D02*
X198914285Y-65143800D01*
X198914285Y-65143800D02*
X198885714Y-65229514D01*
X198885714Y-65229514D02*
X198542857Y-65572371D01*
X198542857Y-65572371D02*
X198914285Y-65572371D01*
X199285714Y-64972371D02*
X199342857Y-64972371D01*
X199342857Y-64972371D02*
X199400000Y-65000942D01*
X199400000Y-65000942D02*
X199428572Y-65029514D01*
X199428572Y-65029514D02*
X199457143Y-65086657D01*
X199457143Y-65086657D02*
X199485714Y-65200942D01*
X199485714Y-65200942D02*
X199485714Y-65343800D01*
X199485714Y-65343800D02*
X199457143Y-65458085D01*
X199457143Y-65458085D02*
X199428572Y-65515228D01*
X199428572Y-65515228D02*
X199400000Y-65543800D01*
X199400000Y-65543800D02*
X199342857Y-65572371D01*
X199342857Y-65572371D02*
X199285714Y-65572371D01*
X199285714Y-65572371D02*
X199228572Y-65543800D01*
X199228572Y-65543800D02*
X199200000Y-65515228D01*
X199200000Y-65515228D02*
X199171429Y-65458085D01*
X199171429Y-65458085D02*
X199142857Y-65343800D01*
X199142857Y-65343800D02*
X199142857Y-65200942D01*
X199142857Y-65200942D02*
X199171429Y-65086657D01*
X199171429Y-65086657D02*
X199200000Y-65029514D01*
X199200000Y-65029514D02*
X199228572Y-65000942D01*
X199228572Y-65000942D02*
X199285714Y-64972371D01*
X199857143Y-64972371D02*
X199914286Y-64972371D01*
X199914286Y-64972371D02*
X199971429Y-65000942D01*
X199971429Y-65000942D02*
X200000001Y-65029514D01*
X200000001Y-65029514D02*
X200028572Y-65086657D01*
X200028572Y-65086657D02*
X200057143Y-65200942D01*
X200057143Y-65200942D02*
X200057143Y-65343800D01*
X200057143Y-65343800D02*
X200028572Y-65458085D01*
X200028572Y-65458085D02*
X200000001Y-65515228D01*
X200000001Y-65515228D02*
X199971429Y-65543800D01*
X199971429Y-65543800D02*
X199914286Y-65572371D01*
X199914286Y-65572371D02*
X199857143Y-65572371D01*
X199857143Y-65572371D02*
X199800001Y-65543800D01*
X199800001Y-65543800D02*
X199771429Y-65515228D01*
X199771429Y-65515228D02*
X199742858Y-65458085D01*
X199742858Y-65458085D02*
X199714286Y-65343800D01*
X199714286Y-65343800D02*
X199714286Y-65200942D01*
X199714286Y-65200942D02*
X199742858Y-65086657D01*
X199742858Y-65086657D02*
X199771429Y-65029514D01*
X199771429Y-65029514D02*
X199800001Y-65000942D01*
X199800001Y-65000942D02*
X199857143Y-64972371D01*
X200314287Y-65172371D02*
X200314287Y-65772371D01*
X200314287Y-65200942D02*
X200371430Y-65172371D01*
X200371430Y-65172371D02*
X200485715Y-65172371D01*
X200485715Y-65172371D02*
X200542858Y-65200942D01*
X200542858Y-65200942D02*
X200571430Y-65229514D01*
X200571430Y-65229514D02*
X200600001Y-65286657D01*
X200600001Y-65286657D02*
X200600001Y-65458085D01*
X200600001Y-65458085D02*
X200571430Y-65515228D01*
X200571430Y-65515228D02*
X200542858Y-65543800D01*
X200542858Y-65543800D02*
X200485715Y-65572371D01*
X200485715Y-65572371D02*
X200371430Y-65572371D01*
X200371430Y-65572371D02*
X200314287Y-65543800D01*
D13*
X208552142Y-54724580D02*
X208504523Y-54772200D01*
X208504523Y-54772200D02*
X208361666Y-54819819D01*
X208361666Y-54819819D02*
X208266428Y-54819819D01*
X208266428Y-54819819D02*
X208123571Y-54772200D01*
X208123571Y-54772200D02*
X208028333Y-54676961D01*
X208028333Y-54676961D02*
X207980714Y-54581723D01*
X207980714Y-54581723D02*
X207933095Y-54391247D01*
X207933095Y-54391247D02*
X207933095Y-54248390D01*
X207933095Y-54248390D02*
X207980714Y-54057914D01*
X207980714Y-54057914D02*
X208028333Y-53962676D01*
X208028333Y-53962676D02*
X208123571Y-53867438D01*
X208123571Y-53867438D02*
X208266428Y-53819819D01*
X208266428Y-53819819D02*
X208361666Y-53819819D01*
X208361666Y-53819819D02*
X208504523Y-53867438D01*
X208504523Y-53867438D02*
X208552142Y-53915057D01*
X209504523Y-54819819D02*
X208933095Y-54819819D01*
X209218809Y-54819819D02*
X209218809Y-53819819D01*
X209218809Y-53819819D02*
X209123571Y-53962676D01*
X209123571Y-53962676D02*
X209028333Y-54057914D01*
X209028333Y-54057914D02*
X208933095Y-54105533D01*
X210456904Y-54819819D02*
X209885476Y-54819819D01*
X210171190Y-54819819D02*
X210171190Y-53819819D01*
X210171190Y-53819819D02*
X210075952Y-53962676D01*
X210075952Y-53962676D02*
X209980714Y-54057914D01*
X209980714Y-54057914D02*
X209885476Y-54105533D01*
D12*
X210243714Y-63465228D02*
X210215142Y-63493800D01*
X210215142Y-63493800D02*
X210129428Y-63522371D01*
X210129428Y-63522371D02*
X210072285Y-63522371D01*
X210072285Y-63522371D02*
X209986571Y-63493800D01*
X209986571Y-63493800D02*
X209929428Y-63436657D01*
X209929428Y-63436657D02*
X209900857Y-63379514D01*
X209900857Y-63379514D02*
X209872285Y-63265228D01*
X209872285Y-63265228D02*
X209872285Y-63179514D01*
X209872285Y-63179514D02*
X209900857Y-63065228D01*
X209900857Y-63065228D02*
X209929428Y-63008085D01*
X209929428Y-63008085D02*
X209986571Y-62950942D01*
X209986571Y-62950942D02*
X210072285Y-62922371D01*
X210072285Y-62922371D02*
X210129428Y-62922371D01*
X210129428Y-62922371D02*
X210215142Y-62950942D01*
X210215142Y-62950942D02*
X210243714Y-62979514D01*
X196422371Y-68500000D02*
X196422371Y-68842857D01*
X196422371Y-68671428D02*
X195822371Y-68671428D01*
X195822371Y-68671428D02*
X195908085Y-68728571D01*
X195908085Y-68728571D02*
X195965228Y-68785714D01*
X195965228Y-68785714D02*
X195993800Y-68842857D01*
X196365228Y-68242856D02*
X196393800Y-68214285D01*
X196393800Y-68214285D02*
X196422371Y-68242856D01*
X196422371Y-68242856D02*
X196393800Y-68271428D01*
X196393800Y-68271428D02*
X196365228Y-68242856D01*
X196365228Y-68242856D02*
X196422371Y-68242856D01*
X196422371Y-67642857D02*
X196422371Y-67985714D01*
X196422371Y-67814285D02*
X195822371Y-67814285D01*
X195822371Y-67814285D02*
X195908085Y-67871428D01*
X195908085Y-67871428D02*
X195965228Y-67928571D01*
X195965228Y-67928571D02*
X195993800Y-67985714D01*
X196422371Y-67385713D02*
X195822371Y-67385713D01*
X196193800Y-67328571D02*
X196422371Y-67157142D01*
X196022371Y-67157142D02*
X196250942Y-67385713D01*
D14*
X205824318Y-71289762D02*
X204554318Y-71289762D01*
X205703365Y-69959285D02*
X205763842Y-70019761D01*
X205763842Y-70019761D02*
X205824318Y-70201190D01*
X205824318Y-70201190D02*
X205824318Y-70322142D01*
X205824318Y-70322142D02*
X205763842Y-70503571D01*
X205763842Y-70503571D02*
X205642889Y-70624523D01*
X205642889Y-70624523D02*
X205521937Y-70685000D01*
X205521937Y-70685000D02*
X205280032Y-70745476D01*
X205280032Y-70745476D02*
X205098603Y-70745476D01*
X205098603Y-70745476D02*
X204856699Y-70685000D01*
X204856699Y-70685000D02*
X204735746Y-70624523D01*
X204735746Y-70624523D02*
X204614794Y-70503571D01*
X204614794Y-70503571D02*
X204554318Y-70322142D01*
X204554318Y-70322142D02*
X204554318Y-70201190D01*
X204554318Y-70201190D02*
X204614794Y-70019761D01*
X204614794Y-70019761D02*
X204675270Y-69959285D01*
X205824318Y-68749761D02*
X205824318Y-69475476D01*
X205824318Y-69112619D02*
X204554318Y-69112619D01*
X204554318Y-69112619D02*
X204735746Y-69233571D01*
X204735746Y-69233571D02*
X204856699Y-69354523D01*
X204856699Y-69354523D02*
X204917175Y-69475476D01*
D12*
X196171428Y-69322371D02*
X195885714Y-69322371D01*
X195885714Y-69322371D02*
X195857142Y-69608085D01*
X195857142Y-69608085D02*
X195885714Y-69579514D01*
X195885714Y-69579514D02*
X195942857Y-69550942D01*
X195942857Y-69550942D02*
X196085714Y-69550942D01*
X196085714Y-69550942D02*
X196142857Y-69579514D01*
X196142857Y-69579514D02*
X196171428Y-69608085D01*
X196171428Y-69608085D02*
X196199999Y-69665228D01*
X196199999Y-69665228D02*
X196199999Y-69808085D01*
X196199999Y-69808085D02*
X196171428Y-69865228D01*
X196171428Y-69865228D02*
X196142857Y-69893800D01*
X196142857Y-69893800D02*
X196085714Y-69922371D01*
X196085714Y-69922371D02*
X195942857Y-69922371D01*
X195942857Y-69922371D02*
X195885714Y-69893800D01*
X195885714Y-69893800D02*
X195857142Y-69865228D01*
X196457143Y-69865228D02*
X196485714Y-69893800D01*
X196485714Y-69893800D02*
X196457143Y-69922371D01*
X196457143Y-69922371D02*
X196428571Y-69893800D01*
X196428571Y-69893800D02*
X196457143Y-69865228D01*
X196457143Y-69865228D02*
X196457143Y-69922371D01*
X197000000Y-69322371D02*
X196885714Y-69322371D01*
X196885714Y-69322371D02*
X196828571Y-69350942D01*
X196828571Y-69350942D02*
X196800000Y-69379514D01*
X196800000Y-69379514D02*
X196742857Y-69465228D01*
X196742857Y-69465228D02*
X196714285Y-69579514D01*
X196714285Y-69579514D02*
X196714285Y-69808085D01*
X196714285Y-69808085D02*
X196742857Y-69865228D01*
X196742857Y-69865228D02*
X196771428Y-69893800D01*
X196771428Y-69893800D02*
X196828571Y-69922371D01*
X196828571Y-69922371D02*
X196942857Y-69922371D01*
X196942857Y-69922371D02*
X197000000Y-69893800D01*
X197000000Y-69893800D02*
X197028571Y-69865228D01*
X197028571Y-69865228D02*
X197057142Y-69808085D01*
X197057142Y-69808085D02*
X197057142Y-69665228D01*
X197057142Y-69665228D02*
X197028571Y-69608085D01*
X197028571Y-69608085D02*
X197000000Y-69579514D01*
X197000000Y-69579514D02*
X196942857Y-69550942D01*
X196942857Y-69550942D02*
X196828571Y-69550942D01*
X196828571Y-69550942D02*
X196771428Y-69579514D01*
X196771428Y-69579514D02*
X196742857Y-69608085D01*
X196742857Y-69608085D02*
X196714285Y-69665228D01*
X197314286Y-69922371D02*
X197314286Y-69322371D01*
X197371429Y-69693800D02*
X197542857Y-69922371D01*
X197542857Y-69522371D02*
X197314286Y-69750942D01*
X201872371Y-77737142D02*
X201872371Y-77337142D01*
X201872371Y-77337142D02*
X202472371Y-77594285D01*
X202129514Y-77022856D02*
X202100942Y-77079999D01*
X202100942Y-77079999D02*
X202072371Y-77108570D01*
X202072371Y-77108570D02*
X202015228Y-77137142D01*
X202015228Y-77137142D02*
X201986657Y-77137142D01*
X201986657Y-77137142D02*
X201929514Y-77108570D01*
X201929514Y-77108570D02*
X201900942Y-77079999D01*
X201900942Y-77079999D02*
X201872371Y-77022856D01*
X201872371Y-77022856D02*
X201872371Y-76908570D01*
X201872371Y-76908570D02*
X201900942Y-76851428D01*
X201900942Y-76851428D02*
X201929514Y-76822856D01*
X201929514Y-76822856D02*
X201986657Y-76794285D01*
X201986657Y-76794285D02*
X202015228Y-76794285D01*
X202015228Y-76794285D02*
X202072371Y-76822856D01*
X202072371Y-76822856D02*
X202100942Y-76851428D01*
X202100942Y-76851428D02*
X202129514Y-76908570D01*
X202129514Y-76908570D02*
X202129514Y-77022856D01*
X202129514Y-77022856D02*
X202158085Y-77079999D01*
X202158085Y-77079999D02*
X202186657Y-77108570D01*
X202186657Y-77108570D02*
X202243800Y-77137142D01*
X202243800Y-77137142D02*
X202358085Y-77137142D01*
X202358085Y-77137142D02*
X202415228Y-77108570D01*
X202415228Y-77108570D02*
X202443800Y-77079999D01*
X202443800Y-77079999D02*
X202472371Y-77022856D01*
X202472371Y-77022856D02*
X202472371Y-76908570D01*
X202472371Y-76908570D02*
X202443800Y-76851428D01*
X202443800Y-76851428D02*
X202415228Y-76822856D01*
X202415228Y-76822856D02*
X202358085Y-76794285D01*
X202358085Y-76794285D02*
X202243800Y-76794285D01*
X202243800Y-76794285D02*
X202186657Y-76822856D01*
X202186657Y-76822856D02*
X202158085Y-76851428D01*
X202158085Y-76851428D02*
X202129514Y-76908570D01*
X202415228Y-76537141D02*
X202443800Y-76508570D01*
X202443800Y-76508570D02*
X202472371Y-76537141D01*
X202472371Y-76537141D02*
X202443800Y-76565713D01*
X202443800Y-76565713D02*
X202415228Y-76537141D01*
X202415228Y-76537141D02*
X202472371Y-76537141D01*
X201872371Y-76308570D02*
X201872371Y-75908570D01*
X201872371Y-75908570D02*
X202472371Y-76165713D01*
X202472371Y-75679998D02*
X201872371Y-75679998D01*
X202243800Y-75622856D02*
X202472371Y-75451427D01*
X202072371Y-75451427D02*
X202300942Y-75679998D01*
X201822371Y-64407143D02*
X201822371Y-64750000D01*
X201822371Y-64578571D02*
X201222371Y-64578571D01*
X201222371Y-64578571D02*
X201308085Y-64635714D01*
X201308085Y-64635714D02*
X201365228Y-64692857D01*
X201365228Y-64692857D02*
X201393800Y-64750000D01*
X201222371Y-64035714D02*
X201222371Y-63978571D01*
X201222371Y-63978571D02*
X201250942Y-63921428D01*
X201250942Y-63921428D02*
X201279514Y-63892857D01*
X201279514Y-63892857D02*
X201336657Y-63864285D01*
X201336657Y-63864285D02*
X201450942Y-63835714D01*
X201450942Y-63835714D02*
X201593800Y-63835714D01*
X201593800Y-63835714D02*
X201708085Y-63864285D01*
X201708085Y-63864285D02*
X201765228Y-63892857D01*
X201765228Y-63892857D02*
X201793800Y-63921428D01*
X201793800Y-63921428D02*
X201822371Y-63978571D01*
X201822371Y-63978571D02*
X201822371Y-64035714D01*
X201822371Y-64035714D02*
X201793800Y-64092857D01*
X201793800Y-64092857D02*
X201765228Y-64121428D01*
X201765228Y-64121428D02*
X201708085Y-64149999D01*
X201708085Y-64149999D02*
X201593800Y-64178571D01*
X201593800Y-64178571D02*
X201450942Y-64178571D01*
X201450942Y-64178571D02*
X201336657Y-64149999D01*
X201336657Y-64149999D02*
X201279514Y-64121428D01*
X201279514Y-64121428D02*
X201250942Y-64092857D01*
X201250942Y-64092857D02*
X201222371Y-64035714D01*
X201822371Y-63578570D02*
X201222371Y-63578570D01*
X201593800Y-63521428D02*
X201822371Y-63349999D01*
X201422371Y-63349999D02*
X201650942Y-63578570D01*
X249057143Y-78622371D02*
X249057143Y-79022371D01*
X248914285Y-78393800D02*
X248771428Y-78822371D01*
X248771428Y-78822371D02*
X249142857Y-78822371D01*
X249314286Y-78422371D02*
X249714286Y-78422371D01*
X249714286Y-78422371D02*
X249457143Y-79022371D01*
X250200001Y-78622371D02*
X250200001Y-79022371D01*
X249942858Y-78622371D02*
X249942858Y-78936657D01*
X249942858Y-78936657D02*
X249971429Y-78993800D01*
X249971429Y-78993800D02*
X250028572Y-79022371D01*
X250028572Y-79022371D02*
X250114286Y-79022371D01*
X250114286Y-79022371D02*
X250171429Y-78993800D01*
X250171429Y-78993800D02*
X250200001Y-78965228D01*
X202172371Y-64485714D02*
X202172371Y-64599999D01*
X202172371Y-64599999D02*
X202200942Y-64657142D01*
X202200942Y-64657142D02*
X202229514Y-64685714D01*
X202229514Y-64685714D02*
X202315228Y-64742856D01*
X202315228Y-64742856D02*
X202429514Y-64771428D01*
X202429514Y-64771428D02*
X202658085Y-64771428D01*
X202658085Y-64771428D02*
X202715228Y-64742856D01*
X202715228Y-64742856D02*
X202743800Y-64714285D01*
X202743800Y-64714285D02*
X202772371Y-64657142D01*
X202772371Y-64657142D02*
X202772371Y-64542856D01*
X202772371Y-64542856D02*
X202743800Y-64485714D01*
X202743800Y-64485714D02*
X202715228Y-64457142D01*
X202715228Y-64457142D02*
X202658085Y-64428571D01*
X202658085Y-64428571D02*
X202515228Y-64428571D01*
X202515228Y-64428571D02*
X202458085Y-64457142D01*
X202458085Y-64457142D02*
X202429514Y-64485714D01*
X202429514Y-64485714D02*
X202400942Y-64542856D01*
X202400942Y-64542856D02*
X202400942Y-64657142D01*
X202400942Y-64657142D02*
X202429514Y-64714285D01*
X202429514Y-64714285D02*
X202458085Y-64742856D01*
X202458085Y-64742856D02*
X202515228Y-64771428D01*
X202715228Y-64171427D02*
X202743800Y-64142856D01*
X202743800Y-64142856D02*
X202772371Y-64171427D01*
X202772371Y-64171427D02*
X202743800Y-64199999D01*
X202743800Y-64199999D02*
X202715228Y-64171427D01*
X202715228Y-64171427D02*
X202772371Y-64171427D01*
X202429514Y-63799999D02*
X202400942Y-63857142D01*
X202400942Y-63857142D02*
X202372371Y-63885713D01*
X202372371Y-63885713D02*
X202315228Y-63914285D01*
X202315228Y-63914285D02*
X202286657Y-63914285D01*
X202286657Y-63914285D02*
X202229514Y-63885713D01*
X202229514Y-63885713D02*
X202200942Y-63857142D01*
X202200942Y-63857142D02*
X202172371Y-63799999D01*
X202172371Y-63799999D02*
X202172371Y-63685713D01*
X202172371Y-63685713D02*
X202200942Y-63628571D01*
X202200942Y-63628571D02*
X202229514Y-63599999D01*
X202229514Y-63599999D02*
X202286657Y-63571428D01*
X202286657Y-63571428D02*
X202315228Y-63571428D01*
X202315228Y-63571428D02*
X202372371Y-63599999D01*
X202372371Y-63599999D02*
X202400942Y-63628571D01*
X202400942Y-63628571D02*
X202429514Y-63685713D01*
X202429514Y-63685713D02*
X202429514Y-63799999D01*
X202429514Y-63799999D02*
X202458085Y-63857142D01*
X202458085Y-63857142D02*
X202486657Y-63885713D01*
X202486657Y-63885713D02*
X202543800Y-63914285D01*
X202543800Y-63914285D02*
X202658085Y-63914285D01*
X202658085Y-63914285D02*
X202715228Y-63885713D01*
X202715228Y-63885713D02*
X202743800Y-63857142D01*
X202743800Y-63857142D02*
X202772371Y-63799999D01*
X202772371Y-63799999D02*
X202772371Y-63685713D01*
X202772371Y-63685713D02*
X202743800Y-63628571D01*
X202743800Y-63628571D02*
X202715228Y-63599999D01*
X202715228Y-63599999D02*
X202658085Y-63571428D01*
X202658085Y-63571428D02*
X202543800Y-63571428D01*
X202543800Y-63571428D02*
X202486657Y-63599999D01*
X202486657Y-63599999D02*
X202458085Y-63628571D01*
X202458085Y-63628571D02*
X202429514Y-63685713D01*
X202372371Y-63314284D02*
X202772371Y-63314284D01*
X202429514Y-63314284D02*
X202400942Y-63285713D01*
X202400942Y-63285713D02*
X202372371Y-63228570D01*
X202372371Y-63228570D02*
X202372371Y-63142856D01*
X202372371Y-63142856D02*
X202400942Y-63085713D01*
X202400942Y-63085713D02*
X202458085Y-63057142D01*
X202458085Y-63057142D02*
X202772371Y-63057142D01*
%TO.C,C_decp2*%
D15*
X208492164Y-63890000D02*
X208707836Y-63890000D01*
X208492164Y-64610000D02*
X208707836Y-64610000D01*
%TO.C,J3*%
X246175000Y-68425000D02*
X246175000Y-66194000D01*
X248442000Y-63930000D02*
X250678000Y-63930000D01*
X250678000Y-70690000D02*
X248443000Y-70690000D01*
X252656000Y-62440000D02*
X261885000Y-60440000D01*
X252656000Y-63147000D02*
X252656000Y-62440000D01*
X252656000Y-72180000D02*
X252656000Y-71473000D01*
X261885000Y-60440000D02*
X271115000Y-60440000D01*
X261885000Y-74180000D02*
X252656000Y-72180000D01*
X271115000Y-60440000D02*
X271115000Y-61440000D01*
X271115000Y-61440000D02*
X274115000Y-61440000D01*
X271115000Y-73180000D02*
X271115000Y-74180000D01*
X271115000Y-74180000D02*
X261885000Y-74180000D01*
X274115000Y-61440000D02*
X274115000Y-73180000D01*
X274115000Y-73180000D02*
X271115000Y-73180000D01*
%TO.C,CL1*%
X210492164Y-72490000D02*
X210707836Y-72490000D01*
X210492164Y-73210000D02*
X210707836Y-73210000D01*
%TO.C,C4*%
X239920000Y-76556252D02*
X239920000Y-76033748D01*
X241390000Y-76556252D02*
X241390000Y-76033748D01*
%TO.C,Ccomp2*%
X198957836Y-70390000D02*
X198742164Y-70390000D01*
X198957836Y-71110000D02*
X198742164Y-71110000D01*
%TO.C,Rdifo3*%
X199046359Y-65870000D02*
X199353641Y-65870000D01*
X199046359Y-66630000D02*
X199353641Y-66630000D01*
%TO.C,C_bp6-2*%
X203221000Y-65722164D02*
X203221000Y-65937836D01*
X203941000Y-65722164D02*
X203941000Y-65937836D01*
%TO.C,J7*%
X200555000Y-86885000D02*
X200555000Y-89645000D01*
X203205000Y-86885000D02*
X200555000Y-86885000D01*
X203205000Y-86885000D02*
X203205000Y-89645000D01*
X203205000Y-89645000D02*
X200555000Y-89645000D01*
X204475000Y-86885000D02*
X205855000Y-86885000D01*
X205855000Y-86885000D02*
X205855000Y-88265000D01*
%TO.C,C_bp6*%
X204190000Y-65712164D02*
X204190000Y-65927836D01*
X204910000Y-65712164D02*
X204910000Y-65927836D01*
%TO.C,C8*%
X231090000Y-73590000D02*
X233440000Y-73590000D01*
X231090000Y-79345563D02*
X231090000Y-73590000D01*
X232154437Y-80410000D02*
X231090000Y-79345563D01*
X232154437Y-80410000D02*
X233440000Y-80410000D01*
X232258750Y-81043750D02*
X233046250Y-81043750D01*
X232652500Y-81437500D02*
X232652500Y-80650000D01*
X236845563Y-80410000D02*
X235560000Y-80410000D01*
X236845563Y-80410000D02*
X237910000Y-79345563D01*
X237910000Y-73590000D02*
X235560000Y-73590000D01*
X237910000Y-79345563D02*
X237910000Y-73590000D01*
%TO.C,Rsn1*%
X251596359Y-74170000D02*
X251903641Y-74170000D01*
X251596359Y-74930000D02*
X251903641Y-74930000D01*
%TO.C,C_bp3*%
X205240000Y-65722164D02*
X205240000Y-65937836D01*
X205960000Y-65722164D02*
X205960000Y-65937836D01*
%TO.C,r_ad1*%
X202920000Y-74136359D02*
X202920000Y-74443641D01*
X203680000Y-74136359D02*
X203680000Y-74443641D01*
%TO.C,C7*%
X222940000Y-73590000D02*
X225290000Y-73590000D01*
X222940000Y-79345563D02*
X222940000Y-73590000D01*
X224004437Y-80410000D02*
X222940000Y-79345563D01*
X224004437Y-80410000D02*
X225290000Y-80410000D01*
X224108750Y-81043750D02*
X224896250Y-81043750D01*
X224502500Y-81437500D02*
X224502500Y-80650000D01*
X228695563Y-80410000D02*
X227410000Y-80410000D01*
X228695563Y-80410000D02*
X229760000Y-79345563D01*
X229760000Y-73590000D02*
X227410000Y-73590000D01*
X229760000Y-79345563D02*
X229760000Y-73590000D01*
%TO.C,C_boot1*%
X205692164Y-73490000D02*
X205907836Y-73490000D01*
X205692164Y-74210000D02*
X205907836Y-74210000D01*
%TO.C,Crsn1*%
X251890000Y-76162164D02*
X251890000Y-76377836D01*
X252610000Y-76162164D02*
X252610000Y-76377836D01*
%TO.C,C5*%
X242915000Y-76561252D02*
X242915000Y-76038748D01*
X244385000Y-76561252D02*
X244385000Y-76038748D01*
%TO.C,C_decp3*%
X208492164Y-64940000D02*
X208707836Y-64940000D01*
X208492164Y-65660000D02*
X208707836Y-65660000D01*
%TO.C,Rsp1*%
X251586359Y-77570000D02*
X251893641Y-77570000D01*
X251586359Y-78330000D02*
X251893641Y-78330000D01*
%TO.C,Rdifo2*%
X198646359Y-66970000D02*
X198953641Y-66970000D01*
X198646359Y-67730000D02*
X198953641Y-67730000D01*
%TO.C,R_rt1*%
X200720000Y-74126359D02*
X200720000Y-74433641D01*
X201480000Y-74126359D02*
X201480000Y-74433641D01*
%TO.C,C6*%
X245815000Y-76561252D02*
X245815000Y-76038748D01*
X247285000Y-76561252D02*
X247285000Y-76038748D01*
%TO.C,C10*%
X204757500Y-48717500D02*
X205545000Y-48717500D01*
X205151250Y-48323750D02*
X205151250Y-49111250D01*
X205785000Y-48219437D02*
X205785000Y-49505000D01*
X205785000Y-48219437D02*
X206849437Y-47155000D01*
X205785000Y-52910563D02*
X205785000Y-51625000D01*
X205785000Y-52910563D02*
X206849437Y-53975000D01*
X206849437Y-47155000D02*
X212605000Y-47155000D01*
X206849437Y-53975000D02*
X212605000Y-53975000D01*
X212605000Y-47155000D02*
X212605000Y-49505000D01*
X212605000Y-53975000D02*
X212605000Y-51625000D01*
%TO.C,L1*%
X207215000Y-73690000D02*
X220885000Y-73690000D01*
X207215000Y-77190000D02*
X207215000Y-73690000D01*
X207215000Y-86710000D02*
X207215000Y-83210000D01*
X220885000Y-73690000D02*
X220885000Y-77190000D01*
X220885000Y-83210000D02*
X220885000Y-86710000D01*
X220885000Y-86710000D02*
X207215000Y-86710000D01*
%TO.C,RL1*%
X212886359Y-72470000D02*
X213193641Y-72470000D01*
X212886359Y-73230000D02*
X213193641Y-73230000D01*
%TO.C,J4*%
X246175000Y-85570000D02*
X246175000Y-83339000D01*
X248442000Y-81075000D02*
X250678000Y-81075000D01*
X250678000Y-87835000D02*
X248443000Y-87835000D01*
X252656000Y-79585000D02*
X261885000Y-77585000D01*
X252656000Y-80292000D02*
X252656000Y-79585000D01*
X252656000Y-89325000D02*
X252656000Y-88618000D01*
X261885000Y-77585000D02*
X271115000Y-77585000D01*
X261885000Y-91325000D02*
X252656000Y-89325000D01*
X271115000Y-77585000D02*
X271115000Y-78585000D01*
X271115000Y-78585000D02*
X274115000Y-78585000D01*
X271115000Y-90325000D02*
X271115000Y-91325000D01*
X271115000Y-91325000D02*
X261885000Y-91325000D01*
X274115000Y-78585000D02*
X274115000Y-90325000D01*
X274115000Y-90325000D02*
X271115000Y-90325000D01*
%TO.C,C_decp4*%
X208492164Y-66040000D02*
X208707836Y-66040000D01*
X208492164Y-66760000D02*
X208707836Y-66760000D01*
%TO.C,Ccomp1*%
X199990000Y-70407836D02*
X199990000Y-70192164D01*
X200710000Y-70407836D02*
X200710000Y-70192164D01*
%TO.C,J1*%
X198235000Y-20350000D02*
X199235000Y-20350000D01*
X198235000Y-29580000D02*
X198235000Y-20350000D01*
X199235000Y-17350000D02*
X210975000Y-17350000D01*
X199235000Y-20350000D02*
X199235000Y-17350000D01*
X200235000Y-38809000D02*
X198235000Y-29580000D01*
X200942000Y-38809000D02*
X200235000Y-38809000D01*
X201725000Y-43023000D02*
X201725000Y-40787000D01*
X206220000Y-45290000D02*
X203989000Y-45290000D01*
X208485000Y-40787000D02*
X208485000Y-43022000D01*
X209975000Y-38809000D02*
X209268000Y-38809000D01*
X210975000Y-17350000D02*
X210975000Y-20350000D01*
X210975000Y-20350000D02*
X211975000Y-20350000D01*
X211975000Y-20350000D02*
X211975000Y-29580000D01*
X211975000Y-29580000D02*
X209975000Y-38809000D01*
%TO.C,Cdifo1*%
X198672164Y-68140000D02*
X198887836Y-68140000D01*
X198672164Y-68860000D02*
X198887836Y-68860000D01*
%TO.C,J2*%
X216650000Y-20350000D02*
X217650000Y-20350000D01*
X216650000Y-29580000D02*
X216650000Y-20350000D01*
X217650000Y-17350000D02*
X229390000Y-17350000D01*
X217650000Y-20350000D02*
X217650000Y-17350000D01*
X218650000Y-38809000D02*
X216650000Y-29580000D01*
X219357000Y-38809000D02*
X218650000Y-38809000D01*
X220140000Y-43023000D02*
X220140000Y-40787000D01*
X224635000Y-45290000D02*
X222404000Y-45290000D01*
X226900000Y-40787000D02*
X226900000Y-43022000D01*
X228390000Y-38809000D02*
X227683000Y-38809000D01*
X229390000Y-17350000D02*
X229390000Y-20350000D01*
X229390000Y-20350000D02*
X230390000Y-20350000D01*
X230390000Y-20350000D02*
X230390000Y-29580000D01*
X230390000Y-29580000D02*
X228390000Y-38809000D01*
%TO.C,C11*%
X204757500Y-56867500D02*
X205545000Y-56867500D01*
X205151250Y-56473750D02*
X205151250Y-57261250D01*
X205785000Y-56369437D02*
X205785000Y-57655000D01*
X205785000Y-56369437D02*
X206849437Y-55305000D01*
X205785000Y-61060563D02*
X205785000Y-59775000D01*
X205785000Y-61060563D02*
X206849437Y-62125000D01*
X206849437Y-55305000D02*
X212605000Y-55305000D01*
X206849437Y-62125000D02*
X212605000Y-62125000D01*
X212605000Y-55305000D02*
X212605000Y-57655000D01*
X212605000Y-62125000D02*
X212605000Y-59775000D01*
%TO.C,C_decp1*%
X208522164Y-62840000D02*
X208737836Y-62840000D01*
X208522164Y-63560000D02*
X208737836Y-63560000D01*
%TO.C,Rdifo1*%
X196770000Y-68153641D02*
X196770000Y-67846359D01*
X197530000Y-68153641D02*
X197530000Y-67846359D01*
%TO.C,IC1*%
D16*
X201875000Y-72925000D02*
G75*
G02*
X201625000Y-72925000I-125000J0D01*
G01*
X201625000Y-72925000D02*
G75*
G02*
X201875000Y-72925000I125000J0D01*
G01*
%TO.C,Rcomp1*%
D15*
X198953641Y-69220000D02*
X198646359Y-69220000D01*
X198953641Y-69980000D02*
X198646359Y-69980000D01*
%TO.C,r_ad2*%
X201820000Y-74126359D02*
X201820000Y-74433641D01*
X202580000Y-74126359D02*
X202580000Y-74433641D01*
%TO.C,R_bp3*%
X201220000Y-65993641D02*
X201220000Y-65686359D01*
X201980000Y-65993641D02*
X201980000Y-65686359D01*
%TO.C,C9*%
X248765000Y-76561252D02*
X248765000Y-76038748D01*
X250235000Y-76561252D02*
X250235000Y-76038748D01*
%TO.C,C_avin1*%
X202240000Y-65742164D02*
X202240000Y-65957836D01*
X202960000Y-65742164D02*
X202960000Y-65957836D01*
%TD*%
M02*
